<?xml version="1.0" encoding="utf-8"?>
<svg viewBox="0 0 27.421 23.36" xmlns="http://www.w3.org/2000/svg">
  <g id="Grupo_819" data-name="Grupo 819" transform="matrix(1, 0, 0, 1, -5753.602051, -8823.702148)">
    <path id="Trazado_1239" data-name="Trazado 1239" d="M5754.56,8846.651a1.3,1.3,0,0,1,.016-.858q1.549-5.114,3.1-10.227a.835.835,0,0,0-.022-.589q-1.969-4.98-3.928-9.966a.938.938,0,0,1,.025-.961.833.833,0,0,1,1.068-.265c.954.356,1.905.723,2.857,1.085l22.624,8.624c.646.246.814.54.688,1.2l-.36.391c-.106.046-.213.088-.316.138q-12.207,5.83-24.412,11.663a1.2,1.2,0,0,1-.945.123Zm21.464-12.93.016-.078-20.159-7.683c.068.182.1.28.142.378q1.521,3.872,3.037,7.746a.375.375,0,0,0,.44.291q8.063-.34,16.127-.662C5775.759,8833.709,5775.892,8833.719,5776.024,8833.722Zm-19.36,10.892.063.041,19.389-9.262a.307.307,0,0,0-.194-.042q-8.209.335-16.42.664c-.214.009-.281.1-.336.282q-1.086,3.63-2.186,7.254C5756.873,8843.905,5756.769,8844.259,5756.664,8844.613Z" fill="#1a509b"/>
  </g>
</svg>