<svg width="20" height="20" viewBox="0 0 20 20" fill="none" xmlns="http://www.w3.org/2000/svg">
<g clip-path="url(#clip0_90_637)">
<path d="M9.05061 7.80234C9.47311 7.04484 9.68394 6.6665 9.99978 6.6665C10.3156 6.6665 10.5264 7.04484 10.9489 7.80234L11.0573 7.99817C11.1781 8.214 11.2381 8.3215 11.3314 8.39234C11.4248 8.46317 11.5414 8.48984 11.7748 8.54234L11.9864 8.59067C12.8064 8.77567 13.2164 8.869 13.3139 9.18234C13.4114 9.4965 13.1323 9.82317 12.5731 10.4765L12.4281 10.6457C12.2698 10.8315 12.1906 10.924 12.1548 11.039C12.1189 11.154 12.1306 11.2782 12.1548 11.5257L12.1764 11.7507C12.2614 12.6232 12.3031 13.059 12.0481 13.2532C11.7931 13.4473 11.4089 13.2698 10.6414 12.9173L10.4423 12.8257C10.2248 12.7257 10.1156 12.6748 9.99978 12.6748C9.88394 12.6748 9.77478 12.7248 9.55728 12.8248L9.35811 12.9165C8.59144 13.2707 8.20644 13.4473 7.95144 13.2532C7.69644 13.0598 7.73811 12.6232 7.82311 11.7515L7.84478 11.5257C7.86894 11.2782 7.88061 11.154 7.84478 11.039C7.80894 10.924 7.72978 10.8307 7.57144 10.6457L7.42644 10.4765C6.86811 9.82317 6.58811 9.4965 6.68561 9.18234C6.78311 8.869 7.19311 8.77567 8.01311 8.59067L8.22478 8.54234C8.45811 8.48984 8.57478 8.46317 8.66811 8.39234C8.76144 8.3215 8.82144 8.214 8.94144 7.99817L9.05061 7.80234Z" stroke="#1937EE" stroke-width="1.5"/>
<path d="M5.83317 2.78151C7.09944 2.04893 8.53693 1.66426 9.99984 1.66651C14.6023 1.66651 18.3332 5.39735 18.3332 9.99985C18.3332 14.6023 14.6023 18.3332 9.99984 18.3332C5.39734 18.3332 1.6665 14.6023 1.6665 9.99985C1.6665 8.48235 2.07234 7.05818 2.7815 5.83318" stroke="#1937EE" stroke-width="1.5" stroke-linecap="round"/>
</g>
<defs>
<clipPath id="clip0_90_637">
<rect width="20" height="20" fill="white"/>
</clipPath>
</defs>
</svg>
