<?xml version="1.0" encoding="utf-8"?>
<svg viewBox="0 95.271 100 100" preserveAspectRatio="none" xmlns="http://www.w3.org/2000/svg">
  <title>tenders-sponsoring-beneficiaries-tender-sponsor-beneficiary</title>
  <g transform="matrix(1, 0, 0, 1, -68.45845, -29.346508)">
    <g transform="matrix(1, 0, 0, 1, 86.45845, 142.617508)">
      <path d="M61,24H41V1H1v38h30v22c0,1.103,0.897,2,2,2h28c1.103,0,2-0.897,2-2V26C63,24.897,62.103,24,61,24z M22,5v4h-2V5h-2v4h-2V3   h10v6h-2V5H22z M31,26v11H3V3h11v8h14V3h11v21h-6C31.897,24,31,24.897,31,26z M33,61V26h28l0.002,35H33z" style="fill: rgb(255, 255, 255);"/>
      <path d="M57,49h-4c-1.103,0-2,0.897-2,2v6c0,1.103,0.897,2,2,2h4c1.103,0,2-0.897,2-2v-6C59,49.897,58.103,49,57,49z M53,57v-6h4   l0.002,6H53z" style="fill: rgb(255, 255, 255);"/>
      <path d="M57,39h-4c-1.103,0-2,0.897-2,2v4c0,1.103,0.897,2,2,2h4c1.103,0,2-0.897,2-2v-4C59,39.897,58.103,39,57,39z M53,45v-4h4   l0.002,4H53z" style="fill: rgb(255, 255, 255);"/>
      <path d="M57,28H37c-1.103,0-2,0.897-2,2v5c0,1.103,0.897,2,2,2h20c1.103,0,2-0.897,2-2v-5C59,28.897,58.103,28,57,28z M37,35v-5h20   l0.002,5H37z" style="fill: rgb(255, 255, 255);"/>
      <path d="M47,39H37c-1.103,0-2,0.897-2,2v16c0,1.103,0.897,2,2,2h10c1.103,0,2-0.897,2-2V41C49,39.897,48.103,39,47,39z M47,45h-4   v-4h4L47,45z M43,47h4.001l0,4H43V47z M41,51h-4v-4h4V51z M41,41v4h-4v-4H41z M37,53h4v4h-4V53z M43,57v-4h4.001l0,4H43z" style="fill: rgb(255, 255, 255);"/>
      <path d="M52,18h-4c-0.552,0-1-0.449-1-1h-2c0,1.654,1.346,3,3,3h1v2h2v-2h1c1.654,0,3-1.346,3-3v-1c0-1.654-1.346-3-3-3h-4   c-0.552,0-1-0.449-1-1v-1c0-0.551,0.448-1,1-1h4c0.552,0,1,0.449,1,1h2c0-1.654-1.346-3-3-3h-1V6h-2v2h-1c-1.654,0-3,1.346-3,3v1   c0,1.654,1.346,3,3,3h4c0.552,0,1,0.449,1,1v1C53,17.551,52.552,18,52,18z" style="fill: rgb(255, 255, 255);"/>
      <path d="M5,27h6v-6H5V27z M7,23h2v2H7V23z" style="fill: rgb(255, 255, 255);"/>
      <path d="M5,35h6v-6H5V35z M7,31h2v2H7V31z" style="fill: rgb(255, 255, 255);"/>
      <rect x="13" y="21" width="12" height="2" style="fill: rgb(255, 255, 255);"/>
      <rect x="13" y="25" width="2" height="2" style="fill: rgb(255, 255, 255);"/>
      <rect x="17" y="25" width="8" height="2" style="fill: rgb(255, 255, 255);"/>
      <rect x="13" y="29" width="12" height="2" style="fill: rgb(255, 255, 255);"/>
      <rect x="13" y="33" width="2" height="2" style="fill: rgb(255, 255, 255);"/>
      <rect x="17" y="33" width="8" height="2" style="fill: rgb(255, 255, 255);"/>
    </g>
  </g>
</svg>