<svg width="16" height="17" viewBox="0 0 16 17" fill="none" xmlns="http://www.w3.org/2000/svg">
<g id="Group">
<path id="Vector" d="M4.38101 1.85769C2.19692 3.15244 0.761963 5.63946 0.761963 8.43958C0.761963 9.92733 1.18647 11.3817 1.9818 12.6187C2.77713 13.8557 3.90757 14.8198 5.23016 15.3892C6.55275 15.9585 8.00809 16.1075 9.41214 15.8172C10.8162 15.527 12.1059 14.8106 13.1182 13.7586C14.1304 12.7066 14.8198 11.3662 15.0991 9.90709C15.3784 8.44793 15.235 6.93547 14.6872 5.56098C14.1394 4.18648 13.2116 3.01168 12.0213 2.18513C10.831 1.35859 9.43162 0.917419 8.00006 0.917419" stroke="#1A509B" stroke-linecap="round" stroke-linejoin="round"/>
<path id="Vector_2" d="M4.38101 5.61873V1.85765H0.761963" stroke="#1A509B" stroke-linecap="round" stroke-linejoin="round"/>
</g>
</svg>
