<?xml version="1.0" encoding="utf-8"?>
<svg viewBox="0 95.271 100 100" preserveAspectRatio="none" xmlns="http://www.w3.org/2000/svg">
  <title>tenders-sponsoring-beneficiaries-tender-sponsor-beneficiary</title>
  <g transform="matrix(0.868492, 0, 0, 0.868492, -81.717995, -15.106958)" style="">
    <g transform="matrix(1, 0, 0, 1, 101.662849, 134.662537)">
      <g>
        <g>
          <g>
            <path d="M82.17,41.04v12.85c0,0.55-0.45,1-1,1c-0.56,0-1-0.45-1-1V41.04c0-0.55,0.44-1,1-1       C81.72,40.04,82.17,40.49,82.17,41.04z" style="fill: rgb(255, 255, 255);"/>
          </g>
        </g>
      </g>
      <g>
        <g>
          <g>
            <path d="M74.56,49.03v13.49c0,0.55-0.45,1-1,1s-1-0.45-1-1V49.03c0-0.07,0.01-0.14,0.02-0.2c0.09-0.46,0.5-0.8,0.98-0.8       C74.11,48.03,74.56,48.47,74.56,49.03z" style="fill: rgb(255, 255, 255);"/>
          </g>
        </g>
      </g>
      <g>
        <g>
          <path d="M66.23,58.28v14.25c0,0.55-0.45,1-1,1c-0.56,0-1-0.45-1-1V58.28c0-0.07,0.01-0.14,0.02-0.2      c0.04-0.18,0.12-0.34,0.24-0.47c0.18-0.2,0.44-0.33,0.74-0.33c0.25,0,0.48,0.09,0.66,0.25C66.1,57.71,66.23,57.98,66.23,58.28z" style="fill: rgb(255, 255, 255);"/>
        </g>
      </g>
      <g>
        <g>
          <path d="M38.2,41.14v0.12h0.06C38.24,41.22,38.22,41.18,38.2,41.14z" style="fill: rgb(255, 255, 255);"/>
        </g>
      </g>
      <g>
        <line x1="15.93" y1="59.08" x2="15.54" y2="59.08" style="fill: rgb(255, 255, 255);"/>
      </g>
      <line x1="15.93" y1="69.78" x2="15.54" y2="69.78" style="fill: rgb(255, 255, 255);"/>
      <path d="M85.31,33.23c-0.81-1.45-2.13-4.25-2.82-5.73c0.8-0.23,1.38-0.98,1.38-1.89l-0.11-1.91c0-1.65-1.31-2.99-2.92-2.99h-5.07    c-1.6,0-2.91,1.34-2.91,2.95l-0.08,2.01c0,0.86,0.58,1.6,1.38,1.83c-0.05,0.1-0.1,0.21-0.16,0.33c-0.25-0.07-0.51-0.11-0.78-0.11    h-5.33c-1.05,0-1.98,0.55-2.52,1.38c-0.29-0.61-0.55-1.16-0.76-1.6c0.8-0.23,1.38-0.98,1.38-1.89l-0.11-1.91    c0-1.65-1.31-2.99-2.91-2.99H57.9c-1.61,0-2.92,1.34-2.92,2.95l-0.08,2.01c0,0.86,0.58,1.6,1.38,1.83    c-0.09,0.19-0.19,0.41-0.31,0.65c-0.45-0.28-0.97-0.43-1.53-0.43h-5.32c-0.75,0-1.42,0.27-1.95,0.72    c-0.16-0.35-0.31-0.67-0.44-0.94c0.8-0.23,1.39-0.97,1.39-1.89l-0.11-1.91c0-1.65-1.31-2.99-2.92-2.99h-5.07    c-1.61,0-2.92,1.34-2.92,2.95l-0.08,2.01c0,0.87,0.59,1.61,1.39,1.83c-0.16,0.33-0.35,0.74-0.56,1.18    c-0.55-0.59-1.33-0.96-2.19-0.96h-5.32c-1.67,0-3.02,1.38-3.02,3.05l-0.08,2.1c0,0.92,0.62,1.69,1.47,1.9    c-0.28,0.59-0.66,1.4-1.07,2.26c-0.58-0.73-1.45-1.19-2.43-1.19h-5.63c-1.72,0-3.12,1.44-3.12,3.16l-0.09,2.22    c0,0.96,0.67,1.77,1.57,1.98c-0.75,1.6-2.27,4.82-3.18,6.47c-0.23,0.33-0.83,1.39-0.83,3.48v22.34c0,0.16-0.01,1.59,1.04,2.68    c0.72,0.74,1.73,1.12,2.99,1.12h8.91c1.26,0,2.26-0.38,2.98-1.12c1.06-1.09,1.05-2.52,1.05-2.65v-6.55h2.86v6.52    c0,0.16-0.01,1.59,1.04,2.68c0.72,0.74,1.73,1.12,2.99,1.12h8.91c1.26,0,2.26-0.38,2.98-1.12c1.06-1.09,1.05-2.52,1.05-2.65v-6.55    h2.86v6.52c0,0.16-0.01,1.59,1.04,2.68c0.72,0.74,1.73,1.12,2.99,1.12h8.91c1.26,0,2.26-0.38,2.98-1.12    c1.06-1.09,1.05-2.52,1.05-2.65v-6.55h4.23c1.21,0,2.17-0.36,2.87-1.07c1.02-1.05,1-2.43,1-2.55v-5.27h3.68    c1.16,0,2.09-0.35,2.76-1.04c0.98-1.01,0.97-2.34,0.97-2.46V36.42C86.07,34.52,85.53,33.54,85.31,33.23z M74.86,23.7    c0-0.55,0.41-0.99,0.91-0.99h5.07c0.51,0,0.92,0.44,0.92,1.05l0.11,1.82h-7.09L74.86,23.7z M66.83,32.09l0.05-1.28    c0-0.6,0.46-1.09,1.01-1.09h5.33c0.32,0,0.6,0.16,0.79,0.42v0.01c0.14,0.19,0.23,0.44,0.23,0.72l0.05,0.98v0.01l0.06,0.98    l-0.55,0.01l-2.26,0.02h-0.01l-4.27,0.04H66.8L66.83,32.09z M56.98,23.7c0-0.55,0.41-0.99,0.92-0.99h5.07    c0.5,0,0.91,0.44,0.91,1.05l0.11,1.82H56.9L56.98,23.7z M57.57,32.82l-0.11-2.01c0-0.3-0.04-0.59-0.12-0.86    c0.5-1.06,0.92-1.97,1.11-2.37h3.99c0.33,0.72,1.42,3.05,2.37,4.94l-0.01,0.35c0,0.78,0.45,1.45,1.11,1.77    c0.11,0.06,0.23,0.1,0.36,0.13c-0.06,0.13-0.13,0.27-0.2,0.42c-0.11,0.24-0.23,0.5-0.36,0.77c-0.27-0.08-0.55-0.12-0.84-0.12    h-5.63c-0.86,0-1.63,0.36-2.19,0.93c-0.37-0.76-0.7-1.47-0.95-2C56.95,34.55,57.57,33.78,57.57,32.82z M66.19,37.28v0.05    c-0.01-0.01-0.01-0.02-0.02-0.02C66.18,37.3,66.19,37.29,66.19,37.28z M66.12,41.22c0,0.02-0.01,0.03-0.02,0.03h-3.06l-3.71,0.01    h-1.3l0.01-0.25l0.08-1.97v-0.06c0.04-0.64,0.52-1.14,1.12-1.14h5.63c0.34,0,0.64,0.16,0.85,0.42C65.89,38.48,66,38.77,66,39.1    l0.04,0.75v0.01L66.12,41.22z M48.04,32.5v-0.01l0.06-1.68c0-0.11,0.02-0.22,0.05-0.32c0.13-0.45,0.51-0.77,0.97-0.77h5.32    c0.25,0,0.48,0.1,0.66,0.27c0.22,0.21,0.36,0.52,0.36,0.88l0.03,0.6l0.08,1.37l-0.77,0.01l-1.14,0.01l-4.29,0.04l-1.12,0.01h-0.23    L48.04,32.5z M39.1,23.7c0-0.55,0.41-0.99,0.92-0.99h5.07c0.5,0,0.92,0.44,0.92,1.05l0.1,1.82h-7.08L39.1,23.7z M38.79,32.82    l-0.07-1.33c0.8-1.63,1.58-3.32,1.85-3.91h4.01c0.22,0.51,0.84,1.84,1.52,3.25l-0.08,2.04c0,0.92,0.62,1.69,1.47,1.9    c-0.2,0.43-0.46,0.99-0.75,1.59c-0.49-0.33-1.08-0.52-1.7-0.52h-5.63c-0.51,0-0.99,0.13-1.42,0.35c-0.25-0.54-0.48-1.03-0.67-1.42    C38.17,34.56,38.79,33.78,38.79,32.82z M46.29,41.22c0,0.02-0.01,0.03-0.02,0.03h-2l-3.72,0.01H38.2v-0.12l0.09-2.03v-0.07    c0-0.45,0.23-0.84,0.57-1.04c0.16-0.1,0.35-0.16,0.55-0.16h5.63c0.31,0,0.6,0.14,0.81,0.37c0.2,0.22,0.32,0.53,0.32,0.89    l0.04,0.62v0.01L46.29,41.22z M29.32,30.81c0-0.6,0.46-1.09,1.02-1.09h5.32c0.56,0,1.02,0.49,1.02,1.15l0.01,0.21l0.1,1.76    l-1,0.01l-6.55,0.06L29.32,30.81z M18.46,39.04c0-0.66,0.5-1.2,1.12-1.2h5.63c0.62,0,1.12,0.54,1.13,1.26l0.03,0.51l0.09,1.61    c0,0.02-0.01,0.03-0.02,0.03h-0.95l-7.12,0.01L18.46,39.04z M28.9,75.54c0,0,0,0.76-0.49,1.25c-0.33,0.33-0.85,0.5-1.54,0.5h-8.91    c-0.69,0-1.21-0.17-1.54-0.5c-0.49-0.49-0.49-1.25-0.49-1.27v-4.74H28.9V75.54z M28.9,68.78H15.93v-8.7H28.9V68.78z M28.9,58.08    H15.93v-4.93c0-1.61,0.45-2.3,0.45-2.31l0.1-0.14c1.14-2.07,3.2-6.48,3.64-7.45h4.58c0.06,0.12,0.14,0.29,0.24,0.51    c0,0,0,0,0,0.01c0.24,0.51,0.59,1.25,0.99,2.08c0.31,0.66,0.65,1.37,1,2.07c0.51,1.05,1.02,2.06,1.42,2.78l0.07,0.11    c0.01,0.01,0.48,0.69,0.48,2.34V58.08z M34.59,49.67c-0.23,0.33-0.83,1.39-0.83,3.48v13.82H30.9V53.15c0-2.09-0.6-3.15-0.83-3.48    c-0.88-1.58-2.32-4.63-3.1-6.28c-0.03-0.07-0.06-0.13-0.09-0.19c0.04-0.01,0.08-0.02,0.12-0.03c0.84-0.25,1.46-1.03,1.46-2    l-0.07-1.13c1.01-2.01,2.16-4.48,2.5-5.2h4.25c0.13,0.27,0.37,0.79,0.68,1.44c0.21,0.45,0.45,0.96,0.72,1.5c0,0.01,0,0.01,0,0.01    c-0.16,0.37-0.25,0.78-0.25,1.21l-0.09,2.22c0,0.58,0.24,1.1,0.63,1.48c0.26,0.24,0.59,0.42,0.95,0.5    c-0.25,0.52-0.58,1.22-0.95,1.99c-0.32,0.68-0.67,1.4-1.01,2.1c-0.35,0.7-0.69,1.37-0.99,1.93    C34.75,49.38,34.67,49.53,34.59,49.67z M48.73,75.54c0,0,0,0.76-0.49,1.25c-0.33,0.33-0.85,0.5-1.54,0.5h-8.91    c-0.69,0-1.21-0.17-1.54-0.5c-0.49-0.49-0.49-1.25-0.49-1.27V53.15c0-0.37,0.03-0.69,0.06-0.97c0.05-0.33,0.11-0.59,0.17-0.8    c0.11-0.37,0.23-0.54,0.23-0.54l0.09-0.14c0.16-0.28,0.33-0.62,0.52-0.97c0.72-1.41,1.61-3.26,2.27-4.66    c0.4-0.84,0.71-1.51,0.85-1.82h4.59c0.04,0.1,0.11,0.24,0.19,0.42c0.23,0.49,0.58,1.24,0.98,2.08c0.79,1.67,1.79,3.72,2.47,4.95    l0.07,0.11c0,0,0.03,0.04,0.06,0.1c0.13,0.24,0.42,0.94,0.42,2.24V75.54z M54.42,49.67c-0.17,0.24-0.54,0.88-0.72,2.04    c-0.07,0.41-0.11,0.89-0.11,1.44v13.82h-2.86V53.15c0-1.21-0.2-2.07-0.42-2.65c-0.15-0.42-0.31-0.69-0.41-0.83    c-0.18-0.32-0.38-0.7-0.59-1.12c-0.32-0.61-0.66-1.3-1-2c-0.61-1.25-1.21-2.52-1.59-3.35c0.9-0.21,1.57-1.02,1.57-2.03l-0.12-2.13    c0-0.28-0.04-0.56-0.11-0.82c0.09-0.17,0.17-0.35,0.25-0.51c0.37-0.77,0.71-1.48,0.96-2.03c0.17-0.37,0.31-0.66,0.4-0.84h4.2    c0-0.03,0.01-0.05,0.02-0.07c0.01,0.02,0.02,0.04,0.03,0.07c0.14,0.3,0.42,0.9,0.78,1.65c0.4,0.86,0.9,1.91,1.4,2.91v0.01    l-0.07,1.81c0,0.96,0.67,1.77,1.57,1.98c-0.67,1.45-1.98,4.21-2.9,5.94C54.61,49.33,54.51,49.51,54.42,49.67z M68.56,75.54    c0,0,0,0.76-0.49,1.25c-0.33,0.33-0.85,0.5-1.54,0.5h-8.91c-0.69,0-1.21-0.17-1.54-0.5c-0.49-0.49-0.49-1.25-0.49-1.27V53.15    c0-0.81,0.11-1.39,0.23-1.77c0.12-0.37,0.23-0.54,0.23-0.54l0.09-0.14c0.48-0.87,1.12-2.16,1.74-3.42c0.35-0.73,0.7-1.46,1-2.1    c0.42-0.89,0.75-1.61,0.9-1.93c0.02-0.04,0.03-0.07,0.05-0.09c0,0.03,0,0.06,0.01,0.09h4.53c0.03,0.08,0.09,0.19,0.15,0.32    c0.33,0.72,0.98,2.11,1.67,3.54c0.33,0.68,0.67,1.38,1,2.02c0.3,0.59,0.58,1.13,0.82,1.57l0.07,0.11c0,0.01,0.05,0.07,0.11,0.21    c0.14,0.31,0.37,0.99,0.37,2.13V75.54z M76.66,65.38c0,0-0.01,0.68-0.44,1.12c-0.3,0.31-0.78,0.47-1.43,0.47h-4.23V53.15    c0-2.09-0.6-3.15-0.83-3.48c-0.43-0.77-0.98-1.89-1.54-3.02c-0.35-0.71-0.69-1.43-1-2.07c-0.25-0.53-0.47-1-0.65-1.38    c0.23-0.05,0.45-0.15,0.65-0.28c0.56-0.36,0.93-1,0.93-1.75L68,39.04c0-0.72-0.23-1.39-0.63-1.92c0.3-0.64,0.57-1.21,0.77-1.64    c0.13-0.28,0.24-0.49,0.31-0.64h4.34c-0.01,0.03-0.03,0.07-0.03,0.11c0.52,1.13,2.35,5.05,3.39,6.92l0.07,0.11    c0.01,0.01,0.44,0.65,0.44,2.19V65.38z M84.07,56.61c0,0-0.01,0.63-0.4,1.04c-0.28,0.28-0.73,0.43-1.33,0.43h-3.68V44.17    c0-1.99-0.57-3-0.79-3.32c-0.85-1.55-2.27-4.54-2.99-6.08c0.85-0.22,1.47-0.99,1.47-1.95l-0.12-2.01c0-0.67-0.21-1.29-0.57-1.8    c0.3-0.64,0.54-1.16,0.67-1.43h3.99c0.45,0.96,2.25,4.84,3.27,6.67l0.07,0.11c0,0.01,0.41,0.61,0.41,2.06V56.61z" style="fill: rgb(255, 255, 255);"/>
      <path d="M46.4,58.28v14.25c0,0.55-0.45,1-1,1c-0.56,0-1-0.45-1-1V58.28c0-0.07,0.01-0.14,0.02-0.2c0.04-0.2,0.14-0.39,0.29-0.53    c0.18-0.16,0.42-0.27,0.69-0.27c0.11,0,0.21,0.02,0.31,0.05c0.34,0.11,0.6,0.4,0.67,0.75C46.39,58.14,46.4,58.21,46.4,58.28z" style="fill: rgb(255, 255, 255);"/>
      <g>
        <path d="M26.93,55.84c0,0.03-0.01,0.06-0.01,0.09c-0.08,0.49-0.5,0.84-0.99,0.84c-0.05,0-0.1,0-0.15-0.01     c-0.5-0.08-0.85-0.51-0.85-0.99v-1.95c-0.35-2.57-1.86-5.25-1.89-5.29c-0.27-0.48-0.11-1.09,0.37-1.37     c0.48-0.27,1.09-0.11,1.37,0.37c0.01,0.03,0.07,0.12,0.15,0.28c0.21,0.39,0.61,1.18,1,2.17c0.42,1.09,0.84,2.41,1,3.74     C27.02,54.44,27.03,55.16,26.93,55.84z" style="fill: rgb(255, 255, 255);"/>
      </g>
    </g>
  </g>
</svg>