<svg width="16" height="16" viewBox="0 0 16 16" fill="none" xmlns="http://www.w3.org/2000/svg">
<path d="M14.0463 13.0231C14.8541 12.0512 15.416 10.899 15.6843 9.66398C15.9527 8.42898 15.9196 7.14751 15.5879 5.92799C15.2563 4.70846 14.6358 3.58676 13.7789 2.65776C12.9221 1.72876 11.8541 1.0198 10.6653 0.590857C9.47648 0.161911 8.20185 0.0255976 6.94923 0.193448C5.69661 0.361298 4.50284 0.828373 3.4689 1.55516C2.43497 2.28195 1.5913 3.24707 1.00925 4.36888C0.427196 5.49069 0.123896 6.73618 0.125003 8C0.125428 9.83723 0.77286 11.6156 1.95369 13.0231L1.94244 13.0327C1.98182 13.0799 2.02682 13.1204 2.06732 13.1671C2.11794 13.2251 2.1725 13.2796 2.22482 13.3359C2.38232 13.5069 2.54432 13.6711 2.71419 13.8253C2.76594 13.8725 2.81938 13.9164 2.87169 13.9614C3.05169 14.1166 3.23675 14.264 3.42857 14.4013C3.45332 14.4181 3.47582 14.4401 3.50057 14.4575V14.4508C4.818 15.3778 6.38962 15.8754 8.00057 15.8754C9.61151 15.8754 11.1831 15.3778 12.5006 14.4508V14.4575C12.5253 14.4401 12.5473 14.4181 12.5726 14.4013C12.7638 14.2634 12.9494 14.1166 13.1294 13.9614C13.1818 13.9164 13.2352 13.8719 13.2869 13.8253C13.4568 13.6706 13.6188 13.5069 13.7763 13.3359C13.8286 13.2796 13.8826 13.2251 13.9338 13.1671C13.9738 13.1204 14.0193 13.0799 14.0587 13.0321L14.0463 13.0231ZM8 3.5C8.50064 3.5 8.99003 3.64846 9.40629 3.9266C9.82255 4.20473 10.147 4.60006 10.3386 5.06259C10.5302 5.52511 10.5803 6.03406 10.4826 6.52508C10.3849 7.01609 10.1439 7.46711 9.78987 7.82112C9.43587 8.17512 8.98484 8.4162 8.49383 8.51387C8.00281 8.61153 7.49386 8.56141 7.03134 8.36982C6.56881 8.17824 6.17348 7.8538 5.89535 7.43754C5.61721 7.02128 5.46875 6.53189 5.46875 6.03125C5.46875 5.35992 5.73544 4.71609 6.21014 4.24139C6.68484 3.76669 7.32867 3.5 8 3.5ZM3.50394 13.0231C3.5137 12.2845 3.81385 11.5795 4.33945 11.0605C4.86506 10.5416 5.57386 10.2504 6.3125 10.25H9.6875C10.4261 10.2504 11.1349 10.5416 11.6606 11.0605C12.1862 11.5795 12.4863 12.2845 12.4961 13.0231C11.2624 14.1348 9.66065 14.75 8 14.75C6.33936 14.75 4.73759 14.1348 3.50394 13.0231Z" fill="white"/>
</svg>
