<?xml version="1.0" encoding="utf-8"?>
<svg viewBox="0 95.271 100 100" preserveAspectRatio="none" xmlns="http://www.w3.org/2000/svg">
  <title>tenders-sponsoring-beneficiaries-tender-sponsor-beneficiary</title>
  <g transform="matrix(1, 0, 0, 1, -69.574806, -27.114483)">
    <path d="M 132.928 173.174 L 106.222 173.174 C 105.808 173.174 105.472 173.51 105.472 173.924 C 105.472 174.338 105.808 174.674 106.222 174.674 L 132.927 174.674 C 133.341 174.674 133.677 174.338 133.677 173.924 C 133.677 173.51 133.342 173.174 132.928 173.174 Z" style="fill: rgb(255, 255, 255);"/>
    <path d="M 127.943 180.581 C 128.357 180.581 128.693 180.245 128.693 179.831 C 128.693 179.417 128.357 179.081 127.943 179.081 L 111.206 179.081 C 110.792 179.081 110.456 179.417 110.456 179.831 C 110.456 180.245 110.792 180.581 111.206 180.581 L 127.943 180.581 Z" style="fill: rgb(255, 255, 255);"/>
    <path d="M 131.759 184.989 L 107.391 184.989 C 106.977 184.989 106.641 185.325 106.641 185.739 C 106.641 186.153 106.977 186.489 107.391 186.489 L 131.758 186.489 C 132.172 186.489 132.508 186.153 132.508 185.739 C 132.508 185.325 132.173 184.989 131.759 184.989 Z" style="fill: rgb(255, 255, 255);"/>
    <path d="M 125.236 190.896 L 113.914 190.896 C 113.5 190.896 113.164 191.232 113.164 191.646 C 113.164 192.06 113.5 192.396 113.914 192.396 L 125.236 192.396 C 125.65 192.396 125.986 192.06 125.986 191.646 C 125.986 191.232 125.65 190.896 125.236 190.896 Z" style="fill: rgb(255, 255, 255);"/>
    <path d="M 119.575 169.827 C 124.467 169.827 128.447 165.847 128.447 160.954 C 128.447 159.743 128.202 158.588 127.759 157.535 C 127.757 157.53 127.758 157.524 127.756 157.518 C 127.754 157.515 127.751 157.513 127.75 157.509 C 126.402 154.323 123.245 152.082 119.574 152.082 C 114.681 152.082 110.701 156.062 110.701 160.954 C 110.702 165.847 114.682 169.827 119.575 169.827 Z M 126.045 157.424 L 120.325 159.826 L 120.325 153.62 C 122.794 153.871 124.905 155.345 126.045 157.424 Z M 118.825 153.62 L 118.825 160.951 C 118.825 160.952 118.825 160.953 118.825 160.954 L 118.825 160.954 C 118.825 160.99 118.841 161.021 118.846 161.056 C 118.855 161.119 118.858 161.183 118.884 161.245 C 118.884 161.245 118.884 161.245 118.884 161.245 C 118.885 161.248 118.888 161.25 118.889 161.253 C 118.924 161.334 118.973 161.402 119.031 161.463 C 119.048 161.481 119.067 161.495 119.086 161.511 C 119.134 161.553 119.187 161.589 119.244 161.617 C 119.268 161.629 119.29 161.641 119.316 161.651 C 119.399 161.682 119.485 161.703 119.574 161.703 C 119.574 161.703 119.575 161.703 119.575 161.703 L 119.575 161.703 C 119.575 161.703 119.575 161.703 119.575 161.703 C 119.672 161.703 119.77 161.684 119.865 161.644 L 119.865 161.644 C 119.865 161.644 119.866 161.644 119.866 161.643 L 126.624 158.805 C 126.832 159.485 126.945 160.206 126.945 160.953 C 126.945 165.018 123.638 168.326 119.573 168.326 C 115.508 168.326 112.2 165.018 112.2 160.953 C 112.202 157.142 115.111 153.997 118.825 153.62 Z" style="fill: rgb(255, 255, 255);"/>
    <path d="M 148.125 188.092 L 141 168.595 L 141 147.834 C 141 147.42 140.664 147.084 140.25 147.084 L 133.14 147.084 L 131.272 141.971 C 131.204 141.784 131.064 141.632 130.884 141.548 C 130.702 141.464 130.499 141.455 130.31 141.524 L 115.096 147.084 L 98.9 147.084 C 98.486 147.084 98.15 147.42 98.15 147.834 L 98.15 153.276 L 91.472 155.717 C 91.083 155.86 90.883 156.29 91.025 156.679 L 98.15 176.179 L 98.15 196.938 C 98.15 197.352 98.486 197.688 98.9 197.688 L 106.01 197.688 L 107.879 202.801 C 107.947 202.988 108.087 203.14 108.268 203.223 C 108.368 203.27 108.476 203.293 108.584 203.293 C 108.671 203.293 108.758 203.277 108.841 203.247 L 124.053 197.687 L 140.25 197.687 C 140.664 197.687 141 197.351 141 196.937 L 141 191.494 L 147.679 189.054 C 147.866 188.986 148.018 188.846 148.101 188.666 C 148.184 188.486 148.193 188.28 148.125 188.092 Z M 130.12 143.191 L 131.544 147.085 L 119.466 147.085 L 130.12 143.191 Z M 92.691 156.869 L 98.149 154.874 L 98.149 171.807 L 92.691 156.869 Z M 109.03 201.581 L 107.608 197.687 L 119.685 197.687 L 109.03 201.581 Z M 99.65 196.188 L 99.65 148.584 L 132.609 148.584 C 132.612 148.584 132.614 148.585 132.616 148.585 C 132.618 148.585 132.62 148.584 132.622 148.584 L 139.5 148.584 L 139.5 168.686 C 139.5 168.686 139.5 168.687 139.5 168.687 L 139.5 196.187 L 99.65 196.187 Z M 141 189.898 L 141 172.963 L 146.459 187.902 L 141 189.898 Z" style="fill: rgb(255, 255, 255);"/>
  </g>
</svg>