<?xml version="1.0" encoding="utf-8"?>
<svg viewBox="0 95.271 100 100" preserveAspectRatio="none" xmlns="http://www.w3.org/2000/svg">
  <title>tenders-sponsoring-beneficiaries-tender-sponsor-beneficiary</title>
  <g transform="matrix(0.739872, 0, 0, 0.739872, 4.058022, 28.666004)" style="">
    <path d="M 92.094 120.597 C 86.792 120.595 83.414 126.262 85.937 130.925 L 83.094 133.769 L 83.094 131.596 C 83.094 130.057 81.427 129.094 80.094 129.864 C 79.475 130.221 79.094 130.882 79.094 131.596 L 79.094 138.596 C 79.094 139.701 79.99 140.596 81.094 140.596 L 88.094 140.596 C 89.634 140.596 90.596 138.93 89.826 137.596 C 89.469 136.977 88.809 136.596 88.094 136.596 L 85.923 136.596 L 88.765 133.753 C 93.505 136.316 99.242 132.788 99.091 127.402 C 98.986 123.613 95.884 120.597 92.094 120.597 Z M 92.094 130.597 C 89.785 130.597 88.341 128.097 89.496 126.097 C 90.651 124.097 93.538 124.097 94.692 126.097 C 94.956 126.553 95.094 127.071 95.094 127.597 C 95.092 129.253 93.75 130.595 92.094 130.597 Z" style="fill: rgb(255, 255, 255);"/>
    <path d="M 32.095 134.596 C 33.257 134.598 34.402 134.308 35.423 133.753 L 38.267 136.596 L 36.094 136.596 C 34.555 136.596 33.592 138.263 34.362 139.596 C 34.719 140.215 35.38 140.596 36.094 140.596 L 43.094 140.596 C 44.199 140.596 45.094 139.701 45.094 138.596 L 45.094 131.596 C 45.094 130.057 43.427 129.094 42.094 129.864 C 41.475 130.221 41.094 130.882 41.094 131.596 L 41.094 133.768 L 38.251 130.925 C 40.813 126.185 37.283 120.45 31.897 120.601 C 26.512 120.752 23.31 126.677 26.134 131.266 C 27.408 133.336 29.664 134.597 32.095 134.596 Z M 32.095 124.596 C 34.405 124.596 35.848 127.096 34.693 129.096 C 33.539 131.096 30.652 131.096 29.497 129.096 C 29.234 128.64 29.095 128.123 29.095 127.596 C 29.097 125.94 30.439 124.598 32.095 124.596 Z" style="fill: rgb(255, 255, 255);"/>
    <path d="M 39.094 187.596 C 39.095 186.434 38.805 185.289 38.251 184.268 L 41.094 181.424 L 41.094 183.596 C 41.094 185.136 42.761 186.098 44.094 185.328 C 44.713 184.971 45.094 184.311 45.094 183.596 L 45.094 176.596 C 45.094 175.492 44.199 174.596 43.094 174.596 L 36.094 174.596 C 34.555 174.596 33.592 176.263 34.362 177.596 C 34.719 178.215 35.38 178.596 36.094 178.596 L 38.266 178.596 L 35.422 181.44 C 30.682 178.878 24.947 182.409 25.099 187.794 C 25.251 193.18 31.176 196.382 35.764 193.557 C 37.834 192.283 39.095 190.027 39.094 187.596 Z M 29.094 187.596 C 29.094 185.287 31.594 183.843 33.594 184.998 C 35.594 186.153 35.594 189.04 33.594 190.194 C 33.138 190.458 32.621 190.596 32.094 190.596 C 30.438 190.594 29.096 189.252 29.094 187.596 Z" style="fill: rgb(255, 255, 255);"/>
    <path d="M 92.093 180.596 C 90.931 180.595 89.787 180.885 88.765 181.44 L 85.922 178.596 L 88.094 178.596 C 89.634 178.596 90.596 176.93 89.826 175.596 C 89.469 174.977 88.809 174.596 88.094 174.596 L 81.094 174.596 C 79.99 174.596 79.094 175.492 79.094 176.596 L 79.094 183.596 C 79.094 185.136 80.761 186.098 82.094 185.328 C 82.713 184.971 83.094 184.311 83.094 183.596 L 83.094 181.425 L 85.937 184.267 C 83.375 189.007 86.905 194.743 92.291 194.591 C 97.677 194.44 100.879 188.515 98.055 183.927 C 96.781 181.857 94.524 180.596 92.093 180.596 Z M 92.093 190.596 C 89.784 190.596 88.34 188.096 89.495 186.096 C 90.65 184.096 93.537 184.096 94.691 186.096 C 94.955 186.552 95.093 187.07 95.093 187.596 C 95.091 189.252 93.749 190.594 92.093 190.596 Z" style="fill: rgb(255, 255, 255);"/>
    <path d="M 41.094 157.596 C 41.094 173.762 58.594 183.866 72.594 175.783 C 86.594 167.7 86.594 147.493 72.594 139.41 C 69.402 137.567 65.78 136.596 62.094 136.596 C 50.502 136.61 41.107 146.004 41.094 157.596 Z M 79.094 157.596 C 79.094 170.683 64.927 178.862 53.594 172.319 C 42.261 165.775 42.261 149.417 53.594 142.874 C 56.178 141.382 59.11 140.596 62.094 140.596 C 71.479 140.607 79.084 148.212 79.094 157.596 Z" style="fill: rgb(255, 255, 255);"/>
    <path d="M 60.094 144.596 L 60.094 145.827 C 56.649 146.607 54.094 149.342 54.094 152.596 C 54.094 157.658 59.169 158.926 61.609 159.537 C 66.094 160.658 66.094 161.733 66.094 162.596 C 66.094 164.222 64.262 165.596 62.094 165.596 C 60.158 165.596 58.46 164.51 58.146 163.071 C 57.817 161.567 55.982 160.983 54.844 162.02 C 54.316 162.502 54.085 163.228 54.238 163.926 C 54.975 166.72 57.254 168.84 60.094 169.372 L 60.094 170.596 C 60.094 172.136 61.761 173.098 63.094 172.328 C 63.713 171.971 64.094 171.311 64.094 170.596 L 64.094 169.366 C 67.539 168.586 70.094 165.85 70.094 162.596 C 70.094 157.535 65.019 156.266 62.579 155.656 C 58.094 154.535 58.094 153.459 58.094 152.596 C 58.094 150.97 59.926 149.596 62.094 149.596 C 64.031 149.596 65.728 150.682 66.042 152.122 C 66.372 153.626 68.206 154.21 69.344 153.172 C 69.872 152.691 70.103 151.964 69.951 151.266 C 69.214 148.472 66.934 146.353 64.094 145.821 L 64.094 144.596 C 64.094 143.057 62.427 142.094 61.094 142.864 C 60.475 143.221 60.094 143.882 60.094 144.596 Z" style="fill: rgb(255, 255, 255);"/>
  </g>
</svg>