<svg width="22" height="22" viewBox="0 0 22 22" fill="none" xmlns="http://www.w3.org/2000/svg">
<g clip-path="url(#clip0_88_625)">
<path d="M5.50007 11.7858C5.93401 11.7858 6.28578 11.434 6.28578 11.0001C6.28578 10.5661 5.93401 10.2144 5.50007 10.2144C5.06613 10.2144 4.71436 10.5661 4.71436 11.0001C4.71436 11.434 5.06613 11.7858 5.50007 11.7858Z" stroke="#1937EE" stroke-linecap="round" stroke-linejoin="round"/>
<path d="M10.607 11.7858C11.0409 11.7858 11.3927 11.434 11.3927 11.0001C11.3927 10.5661 11.0409 10.2144 10.607 10.2144C10.1731 10.2144 9.82129 10.5661 9.82129 11.0001C9.82129 11.434 10.1731 11.7858 10.607 11.7858Z" stroke="#1937EE" stroke-linecap="round" stroke-linejoin="round"/>
<path d="M15.7144 11.7858C16.1484 11.7858 16.5001 11.434 16.5001 11.0001C16.5001 10.5661 16.1484 10.2144 15.7144 10.2144C15.2805 10.2144 14.9287 10.5661 14.9287 11.0001C14.9287 11.434 15.2805 11.7858 15.7144 11.7858Z" stroke="#1937EE" stroke-linecap="round" stroke-linejoin="round"/>
<path d="M10.9999 0.785646C9.15231 0.786221 7.33944 1.28794 5.75441 2.23735C4.16938 3.18677 2.87155 4.54833 1.99916 6.17702C1.12676 7.80571 0.712465 9.64053 0.800399 11.4861C0.888333 13.3316 1.4752 15.1187 2.4985 16.6571L0.785645 21.2142L6.52136 20.1771C7.9025 20.852 9.41817 21.2065 10.9554 21.2141C12.4926 21.2217 14.0117 20.8823 15.3994 20.221C16.7872 19.5598 18.0078 18.5939 18.9703 17.3953C19.9328 16.1967 20.6123 14.7963 20.9583 13.2985C21.3042 11.8007 21.3076 10.2441 20.9682 8.74482C20.6288 7.24552 19.9554 5.84217 18.9981 4.63936C18.0409 3.43656 16.8245 2.46533 15.4396 1.79807C14.0548 1.13081 12.5372 0.784739 10.9999 0.785646Z" stroke="#1937EE" stroke-linecap="round" stroke-linejoin="round"/>
</g>
<defs>
<clipPath id="clip0_88_625">
<rect width="22" height="22" fill="white"/>
</clipPath>
</defs>
</svg>
