<svg width="19" height="19" viewBox="0 0 19 19" fill="none" xmlns="http://www.w3.org/2000/svg">
<path d="M5.88077 3.16672C3.69667 4.41258 2.26172 6.80568 2.26172 9.50006C2.26172 10.9316 2.68623 12.331 3.48156 13.5213C4.27689 14.7116 5.40733 15.6394 6.72991 16.1872C8.0525 16.735 9.50784 16.8784 10.9119 16.5991C12.3159 16.3198 13.6057 15.6304 14.6179 14.6182C15.6302 13.6059 16.3195 12.3162 16.5988 10.9121C16.8781 9.50809 16.7348 8.05275 16.1869 6.73016C15.6391 5.40757 14.7114 4.27713 13.5211 3.4818C12.3308 2.68647 10.9314 2.26196 9.49981 2.26196" stroke="#1A509B" stroke-linecap="round" stroke-linejoin="round"/>
<path d="M5.88077 6.7858V3.16675H2.26172" stroke="#1A509B" stroke-linecap="round" stroke-linejoin="round"/>
</svg>
