<?xml version="1.0" encoding="utf-8"?>
<svg viewBox="0 95.271 100 100" preserveAspectRatio="none" xmlns="http://www.w3.org/2000/svg">
  <g transform="matrix(1.207085, 0, 0, 1.207085, -317.666016, -12.539678)" style="">
    <rect x="285.401" y="111.204" width="2" height="4.915" style="fill: rgb(255, 255, 255);"/>
    <rect x="291.226" y="111.204" width="2" height="4.915" style="fill: rgb(255, 255, 255);"/>
    <rect x="297.051" y="111.204" width="2" height="4.915" style="fill: rgb(255, 255, 255);"/>
    <rect x="307.94" y="112.661" width="2.609" height="2" style="fill: rgb(255, 255, 255);"/>
    <rect x="314.19" y="112.661" width="2.608" height="2" style="fill: rgb(255, 255, 255);"/>
    <rect x="285.401" y="123.109" width="2" height="4.915" style="fill: rgb(255, 255, 255);"/>
    <rect x="291.226" y="123.109" width="2" height="4.915" style="fill: rgb(255, 255, 255);"/>
    <rect x="297.051" y="123.109" width="2" height="4.915" style="fill: rgb(255, 255, 255);"/>
    <rect x="307.94" y="124.566" width="2.609" height="2" style="fill: rgb(255, 255, 255);"/>
    <rect x="314.19" y="124.566" width="2.608" height="2" style="fill: rgb(255, 255, 255);"/>
    <rect x="285.401" y="135.015" width="2" height="4.915" style="fill: rgb(255, 255, 255);"/>
    <rect x="291.226" y="135.015" width="2" height="4.915" style="fill: rgb(255, 255, 255);"/>
    <rect x="297.051" y="135.015" width="2" height="4.915" style="fill: rgb(255, 255, 255);"/>
    <path d="M 314.745 154.766 C 322.379 154.766 328.59 148.555 328.59 140.921 C 328.59 136.208 326.218 132.042 322.61 129.541 L 322.61 120.614 L 322.61 118.614 L 322.61 106.708 L 280.59 106.708 L 280.59 118.614 L 280.59 120.614 L 280.59 130.52 L 280.59 132.52 L 280.59 144.425 L 301.366 144.425 C 302.924 150.365 308.323 154.766 314.745 154.766 Z M 326.59 140.921 C 326.59 147.452 321.276 152.766 314.745 152.766 C 308.213 152.766 302.899 147.452 302.899 140.921 C 302.899 134.39 308.213 129.076 314.745 129.076 C 321.276 129.076 326.59 134.39 326.59 140.921 Z M 282.59 108.708 L 320.61 108.708 L 320.61 118.614 L 282.59 118.614 L 282.59 108.708 Z M 282.59 120.614 L 320.61 120.614 L 320.61 128.398 C 318.826 127.559 316.843 127.076 314.745 127.076 C 311.256 127.076 308.074 128.383 305.637 130.52 L 282.59 130.52 L 282.59 120.614 Z M 282.59 142.425 L 282.59 132.52 L 303.765 132.52 C 301.976 134.853 300.899 137.76 300.899 140.921 C 300.899 141.43 300.931 141.931 300.985 142.425 L 282.59 142.425 Z" style="fill: rgb(255, 255, 255);"/>
    <polygon points="313.745 135.316 313.745 144.112 311.53 141.897 310.116 143.311 314.745 147.94 319.373 143.311 317.959 141.897 315.745 144.111 315.745 135.316" style="fill: rgb(255, 255, 255);"/>
  </g>
</svg>