<svg width="17" height="17" viewBox="0 0 17 17" fill="none" xmlns="http://www.w3.org/2000/svg">
<path d="M6.25 6.10417V10.5625C6.25 10.8819 6.39583 11.125 6.6875 11.2917C6.97917 11.4583 7.26389 11.4444 7.54167 11.25L11 9.04167C11.2639 8.875 11.3958 8.63889 11.3958 8.33333C11.3958 8.02778 11.2639 7.79167 11 7.625L7.54167 5.41667C7.26389 5.22222 6.97917 5.20833 6.6875 5.375C6.39583 5.54167 6.25 5.78472 6.25 6.10417ZM8.33333 16.6667C7.18056 16.6667 6.09722 16.4478 5.08333 16.01C4.06944 15.5722 3.1875 14.9786 2.4375 14.2292C1.6875 13.4792 1.09389 12.5972 0.656667 11.5833C0.219445 10.5694 0.000555556 9.48611 0 8.33333C0 7.18056 0.218889 6.09722 0.656667 5.08333C1.09444 4.06944 1.68806 3.1875 2.4375 2.4375C3.1875 1.6875 4.06944 1.09389 5.08333 0.656667C6.09722 0.219445 7.18056 0.000555556 8.33333 0C9.48611 0 10.5694 0.218889 11.5833 0.656667C12.5972 1.09444 13.4792 1.68806 14.2292 2.4375C14.9792 3.1875 15.5731 4.06944 16.0108 5.08333C16.4486 6.09722 16.6672 7.18056 16.6667 8.33333C16.6667 9.48611 16.4478 10.5694 16.01 11.5833C15.5722 12.5972 14.9786 13.4792 14.2292 14.2292C13.4792 14.9792 12.5972 15.5731 11.5833 16.0108C10.5694 16.4486 9.48611 16.6672 8.33333 16.6667Z" fill="#E4A928"/>
</svg>
