<?xml version="1.0" encoding="utf-8"?>
<svg viewBox="0 95.271 100 100" preserveAspectRatio="none" xmlns="http://www.w3.org/2000/svg">
  <title>tenders-sponsoring-beneficiaries-tender-sponsor-beneficiary</title>
  <g style="" transform="matrix(0.624861, 0, 0, 0.624861, -13.907804, 13.493422)">
    <path d="M 71.828 202.791 L 120.428 202.791 C 121.128 202.791 121.728 202.191 121.728 201.491 L 121.728 180.991 C 121.728 180.291 121.128 179.691 120.428 179.691 L 71.828 179.691 C 71.128 179.691 70.528 180.291 70.528 180.991 L 70.528 201.491 C 70.628 202.191 71.128 202.791 71.828 202.791 Z M 73.128 182.291 L 119.228 182.291 L 119.228 200.291 L 73.128 200.291 L 73.128 182.291 Z" style="fill: rgb(255, 255, 255);"/>
    <path d="M 82.728 210.991 L 71.828 210.991 C 71.128 210.991 70.528 211.591 70.528 212.291 L 70.528 222.191 C 70.528 222.891 71.128 223.491 71.828 223.491 L 82.728 223.491 C 83.428 223.491 84.028 222.891 84.028 222.191 L 84.028 212.291 C 83.928 211.491 83.428 210.991 82.728 210.991 Z M 81.428 220.791 L 73.028 220.791 L 73.028 213.391 L 81.428 213.391 L 81.428 220.791 Z" style="fill: rgb(255, 255, 255);"/>
    <path d="M 82.728 230.591 L 71.828 230.591 C 71.128 230.591 70.528 231.191 70.528 231.891 L 70.528 241.791 C 70.528 242.491 71.128 243.091 71.828 243.091 L 82.728 243.091 C 83.428 243.091 84.028 242.491 84.028 241.791 L 84.028 231.891 C 83.928 231.191 83.428 230.591 82.728 230.591 Z M 81.428 240.491 L 73.028 240.491 L 73.028 233.091 L 81.428 233.091 L 81.428 240.491 Z" style="fill: rgb(255, 255, 255);"/>
    <path d="M 101.628 210.991 L 90.728 210.991 C 90.028 210.991 89.428 211.591 89.428 212.291 L 89.428 222.191 C 89.428 222.891 90.028 223.491 90.728 223.491 L 101.628 223.491 C 102.328 223.491 102.928 222.891 102.928 222.191 L 102.928 212.291 C 102.828 211.491 102.328 210.991 101.628 210.991 Z M 100.328 220.791 L 91.928 220.791 L 91.928 213.391 L 100.328 213.391 L 100.328 220.791 Z" style="fill: rgb(255, 255, 255);"/>
    <path d="M 101.628 230.591 L 90.728 230.591 C 90.028 230.591 89.428 231.191 89.428 231.891 L 89.428 241.791 C 89.428 242.491 90.028 243.091 90.728 243.091 L 101.628 243.091 C 102.328 243.091 102.928 242.491 102.928 241.791 L 102.928 231.891 C 102.828 231.191 102.328 230.591 101.628 230.591 Z M 100.328 240.491 L 91.928 240.491 L 91.928 233.091 L 100.328 233.091 L 100.328 240.491 Z" style="fill: rgb(255, 255, 255);"/>
    <path d="M 136.328 221.591 C 135.228 220.891 134.028 220.291 132.828 219.891 L 132.828 173.691 C 132.828 169.391 129.328 165.891 125.028 165.891 L 67.328 165.891 C 63.028 165.891 59.528 169.391 59.528 173.691 L 59.528 248.091 C 59.528 252.391 63.028 255.891 67.328 255.891 L 125.128 255.891 C 125.228 255.891 125.428 255.891 125.528 255.891 C 125.828 255.891 126.128 255.891 126.328 255.891 C 132.628 255.891 138.628 252.691 142.028 247.291 C 143.628 244.891 144.528 242.091 144.928 239.091 C 145.328 235.291 144.328 232.091 144.328 231.991 C 142.928 227.791 140.128 223.991 136.328 221.591 Z M 67.328 253.391 C 64.428 253.391 62.028 250.991 62.028 248.091 L 62.028 173.691 C 62.028 170.791 64.428 168.391 67.328 168.391 L 125.128 168.391 C 128.028 168.391 130.428 170.791 130.428 173.691 L 130.428 219.091 C 130.028 218.991 129.628 218.891 129.228 218.891 C 129.128 218.891 129.128 218.891 129.028 218.891 C 128.528 218.791 128.028 218.791 127.528 218.691 C 127.428 218.691 127.228 218.691 127.128 218.691 C 126.728 218.691 126.428 218.691 126.028 218.691 C 125.828 218.691 125.728 218.691 125.528 218.691 C 125.228 218.691 124.828 218.691 124.528 218.791 C 124.328 218.791 124.228 218.791 124.028 218.891 C 123.728 218.891 123.428 218.991 123.128 218.991 C 122.928 218.991 122.728 219.091 122.628 219.091 C 122.328 219.191 122.028 219.191 121.728 219.291 C 121.528 219.291 121.328 219.391 121.228 219.491 C 120.928 219.591 120.628 219.691 120.328 219.791 C 120.128 219.891 119.928 219.891 119.828 219.991 C 119.528 220.091 119.228 220.191 119.028 220.291 C 118.828 220.391 118.628 220.491 118.528 220.491 C 118.228 220.591 118.028 220.791 117.728 220.891 C 117.528 220.991 117.428 221.091 117.228 221.191 C 116.928 221.291 116.728 221.491 116.428 221.691 C 116.228 221.791 116.128 221.891 115.928 221.991 C 115.728 222.191 115.428 222.291 115.228 222.491 C 115.028 222.591 114.928 222.691 114.728 222.891 C 114.528 223.091 114.228 223.291 114.028 223.491 C 113.928 223.591 113.728 223.791 113.628 223.891 C 113.428 224.091 113.228 224.291 112.928 224.591 C 112.828 224.691 112.628 224.891 112.528 224.991 C 112.328 225.291 112.128 225.491 111.828 225.791 C 111.728 225.891 111.628 225.991 111.528 226.191 C 111.228 226.591 110.928 226.991 110.628 227.391 C 105.128 236.091 107.628 247.591 116.228 253.191 C 116.428 253.391 116.728 253.491 116.928 253.591 L 67.328 253.591 Z M 142.328 238.891 C 142.328 238.891 142.328 238.891 142.328 238.891 C 142.028 241.491 141.228 243.891 139.828 245.991 C 136.728 250.791 131.228 253.691 125.428 253.391 C 122.628 253.291 119.828 252.391 117.428 250.891 C 109.928 246.091 107.728 236.091 112.528 228.591 C 112.728 228.291 113.028 227.891 113.228 227.591 C 113.328 227.491 113.428 227.391 113.428 227.291 C 113.628 227.091 113.828 226.791 114.028 226.591 C 114.128 226.491 114.228 226.391 114.328 226.291 C 114.528 226.091 114.828 225.791 115.028 225.591 C 115.028 225.591 115.128 225.491 115.128 225.491 C 115.428 225.191 115.728 224.991 116.028 224.691 C 116.128 224.591 116.228 224.591 116.328 224.491 C 116.528 224.291 116.828 224.091 117.028 223.991 C 117.128 223.891 117.228 223.891 117.328 223.791 C 117.628 223.591 117.828 223.491 118.128 223.291 C 118.228 223.291 118.328 223.191 118.328 223.191 C 118.628 222.991 119.028 222.791 119.428 222.691 C 119.528 222.691 119.528 222.591 119.628 222.591 C 119.928 222.491 120.228 222.391 120.528 222.191 C 120.628 222.191 120.728 222.091 120.828 222.091 C 121.128 221.991 121.428 221.891 121.628 221.791 C 121.728 221.791 121.828 221.691 121.928 221.691 C 122.328 221.591 122.728 221.491 123.028 221.391 C 123.028 221.391 123.128 221.391 123.128 221.391 C 123.428 221.291 123.828 221.291 124.128 221.191 C 124.228 221.191 124.328 221.191 124.528 221.191 C 124.828 221.191 125.128 221.191 125.428 221.091 C 125.528 221.091 125.628 221.091 125.828 221.091 C 126.128 221.091 126.328 221.091 126.628 221.091 C 126.828 221.091 127.028 221.091 127.228 221.091 C 127.528 221.091 127.728 221.091 128.028 221.191 C 128.228 221.191 128.328 221.191 128.528 221.291 C 128.828 221.291 129.128 221.391 129.328 221.491 C 129.428 221.491 129.628 221.591 129.728 221.591 C 130.128 221.691 130.528 221.791 131.028 221.991 C 132.328 222.391 133.628 222.991 134.828 223.791 C 138.128 225.891 140.528 229.191 141.628 232.991 C 141.828 232.891 142.728 235.591 142.328 238.891 Z" style="fill: rgb(255, 255, 255);"/>
    <path d="M 127.728 235.991 L 127.728 230.691 C 128.728 230.991 129.828 231.791 129.828 232.791 L 132.328 232.791 C 132.328 230.291 130.128 228.591 127.728 228.091 L 127.728 225.991 L 125.228 225.991 L 125.228 227.991 C 123.628 228.191 122.228 228.791 121.228 229.791 C 119.728 231.191 119.328 233.491 120.128 235.191 C 121.028 236.891 122.828 237.991 125.128 238.291 C 125.128 238.291 125.228 238.291 125.228 238.291 L 125.228 243.491 C 124.128 243.191 122.728 242.391 122.728 241.191 L 120.228 241.191 C 120.228 243.691 122.628 245.491 124.928 245.991 C 125.028 245.991 125.128 245.991 125.228 245.991 L 125.228 247.891 L 127.728 247.891 L 127.728 245.991 C 129.028 245.791 130.328 245.191 131.228 244.291 C 132.728 242.891 133.228 240.591 132.328 238.991 C 131.828 237.791 130.528 236.391 127.728 235.991 Z M 122.428 233.991 C 122.028 233.291 122.328 232.191 123.028 231.591 C 123.628 230.991 124.428 230.691 125.328 230.491 L 125.328 235.691 C 123.928 235.491 122.828 234.891 122.428 233.991 Z M 129.528 242.491 C 129.028 242.891 128.428 243.291 127.728 243.391 L 127.728 238.491 C 128.728 238.691 129.628 239.091 130.128 239.991 C 130.528 240.791 130.228 241.891 129.528 242.491 Z" style="fill: rgb(255, 255, 255);"/>
    <path d="M 110.128 213.491 L 119.228 213.491 L 119.228 217.191 L 121.728 217.191 L 121.728 212.291 C 121.728 211.591 121.128 210.991 120.428 210.991 L 108.828 210.991 C 108.128 210.991 107.528 211.591 107.528 212.291 L 107.528 224.591 L 110.028 224.591 L 110.028 213.491 Z" style="fill: rgb(255, 255, 255);"/>
  </g>
</svg>