<?xml version="1.0" encoding="utf-8"?>
<svg viewBox="0 95.271 100 100" preserveAspectRatio="none" xmlns="http://www.w3.org/2000/svg">
  <g data-name="Group 539" transform="matrix(1, 0, 0, 1, 17.892395, 113.129402)">
    <g data-name="Group 538">
      <path data-name="Path 674" d="M846.16 1562.775a8.22 8.22 0 0 1-5.46-3.775 8.1 8.1 0 0 1-1.159-4.05c-.012-.336-.009-.662-.52-.677a.593.593 0 0 0-.71.587c-.088.6-.662 1.047-.693 1.575s.544.987.693 1.57a3.445 3.445 0 0 1-3.2 4.3c-5.979.027-11.959.049-17.938-.005-3.813-.035-7.424-3.438-7.922-7.315a8.623 8.623 0 0 1 6.963-9.789c.4-.081.588-.22.576-.645a3.339 3.339 0 0 1 .643-2.059.582.582 0 0 0 .024-.787 3.486 3.486 0 0 1 2.975-5.515c1.106-.015.994-.05.994-1.068v-30.419a6 6 0 0 1 4.89-6.12 5.508 5.508 0 0 1 1.059-.078q10.977-.008 21.953-.005a5.535 5.535 0 0 1 4.112 1.708 462.47 462.47 0 0 1 5.791 6.089 6.011 6.011 0 0 1 1.659 4.334c-.026 2.7.008 5.394-.019 8.091-.005.571.158.752.741.755a34.609 34.609 0 0 1 4.947.089 7.925 7.925 0 0 1 6.718 6.469c.031.163.074.324.111.486v29.232a9.817 9.817 0 0 1-1.066 3.125 8.2 8.2 0 0 1-5.583 3.9zm-22.554-42.941v15.366c0 .973 0 .975.953.975 3.345 0 6.691-.018 10.036.006 3.2.023 4.765 2.832 3.124 5.575a.541.541 0 0 0 .017.678 3.373 3.373 0 0 1 0 4.094.485.485 0 0 0-.042.624 3.416 3.416 0 0 1-.014 4.251c-.2.281-.109.518.152.612a2.106 2.106 0 0 0 1.472.01c.377-.148.212-.594.212-.908q.012-11.416.012-22.833a12.543 12.543 0 0 1 .145-2.185 7.926 7.926 0 0 1 7.952-6.64q5.175-.014 10.35 0c.463 0 .745-.062.74-.635q-.031-4.234 0-8.468c.006-.653-.256-.809-.861-.8-1.985.03-3.972.02-5.958.007-1.238-.008-1.6-.388-1.605-1.626v-6.524c0-.819 0-.82-.844-.821h-4.2c-5.75 0-11.5.029-17.25-.011a4.074 4.074 0 0 0-4.412 4.381c.091 4.96.021 9.917.021 14.872zm47.739 21.38c0-4.558.008-9.115 0-13.673a5.835 5.835 0 0 0-6.022-6.016q-8.844-.014-17.687 0a5.862 5.862 0 0 0-6.062 6q-.04 13.609 0 27.221a5.963 5.963 0 0 0 1.08 3.541 6.154 6.154 0 0 0 5.372 2.56h16.872a7.9 7.9 0 0 0 1.927-.2 5.86 5.86 0 0 0 4.523-5.816c.004-4.543-.003-9.08-.003-13.617zm-50.092 19.058a6.465 6.465 0 0 0 6.59-6.646 6.587 6.587 0 1 0-13.173.049 6.482 6.482 0 0 0 6.583 6.597zm6.391-21.92h-5.642c-.564 0-1.129-.017-1.692.008a1.314 1.314 0 0 0-1.338 1.231 1.284 1.284 0 0 0 1.162 1.389 3.315 3.315 0 0 0 .623.045h13.664a2.645 2.645 0 0 0 .986-.142 1.188 1.188 0 0 0 .818-1.146 1.326 1.326 0 0 0-1.5-1.385c-2.36-.006-4.725.001-7.081 0zm-.053 4.777h-6.77a2.748 2.748 0 0 0-1.106.17 1.281 1.281 0 0 0-.732 1.39c.152.591.652.353 1 .347a11.04 11.04 0 0 1 4.733.7 1.949 1.949 0 0 0 .741.067q3.792.006 7.584 0c.648 0 1.3.021 1.943-.014a1.274 1.274 0 0 0 1.242-1.183 1.222 1.222 0 0 0-1.054-1.4 4.214 4.214 0 0 0-.87-.076c-2.24-.004-4.476-.001-6.711-.001zm-.438 16.958c.239.028.34.05.442.05 2.423 0 4.846.01 7.269-.005a1.207 1.207 0 0 0 1.361-1.286 1.278 1.278 0 0 0-1.382-1.3c-1.8-.017-3.593-.006-5.389-.006-.211 0-.437-.007-.552.212a12.158 12.158 0 0 1-1.749 2.335zm4.541-12.107h-3.316c-.358 0-.555.074-.252.45a7.165 7.165 0 0 1 1.019 1.717.682.682 0 0 0 .738.434c1.648-.011 3.3 0 4.943-.009a1.28 1.28 0 0 0 1.4-1.338c-.012-.779-.511-1.237-1.4-1.249-1.046-.015-2.089-.004-3.132-.005zm.944 7.374v-.005c.772 0 1.545.02 2.316-.005a1.284 1.284 0 0 0 .045-2.566c-1.544-.029-3.088-.009-4.633-.017-.345 0-.481.147-.48.492a12.73 12.73 0 0 1-.066 1.623c-.05.4.108.481.439.479.793-.004 1.586-.001 2.379-.001zm19.978-52.912-.146.077v4.435c0 .225.04.44.322.441 1.448.006 2.9 0 4.506 0zm-40.592 52.448c-.721-.005-.767.055-.554.743a2.562 2.562 0 0 0 .183.461c.211.388.588.2.9.234.134.015.3.037.37-.145a1.1 1.1 0 0 0-.899-1.293zm-.162-2.062c.742 0 .926-.213.936-1 .006-.486-.352-.322-.578-.33-.681-.024-.864.2-.918.951-.04.545.35.323.56.379z" style="fill:#fcfbfa" transform="translate(-809.162 -1498.497)"/>
      <path data-name="Path 675" d="M834.963 1529.92a1.727 1.727 0 0 0-1.036-1.717c-.7-.332-1.427-.593-2.129-.915a3.1 3.1 0 0 1-1.96-3.649 2.754 2.754 0 0 1 1.795-2.238.761.761 0 0 0 .585-.82.986.986 0 0 1 .944-1.108c.541-.008.945.4.971 1.082.016.409.2.54.552.6a3.574 3.574 0 0 1 1.353.472.927.927 0 0 1 .386 1.293.823.823 0 0 1-1.227.332 3.664 3.664 0 0 0-2.429-.343 1.264 1.264 0 0 0-1.091 1.06 1.3 1.3 0 0 0 .618 1.4 10.568 10.568 0 0 0 1.956.833 3.6 3.6 0 0 1 2.6 3.274 3.423 3.423 0 0 1-2.237 3.778.6.6 0 0 0-.476.627c-.04.727-.376 1.079-.95 1.086s-.938-.35-.973-1.062a.593.593 0 0 0-.537-.631 3.7 3.7 0 0 1-1.636-.889 1.5 1.5 0 0 1-.51-.843.967.967 0 0 1 .513-1.052.7.7 0 0 1 .947.221 2.621 2.621 0 0 0 2.341.934 1.541 1.541 0 0 0 1.63-1.725z" style="fill:#fcfbfa" transform="translate(-809.162 -1498.497)"/>
      <path data-name="Path 676" d="M838.113 1511.421c2.716 0 5.432.006 8.149 0a1.064 1.064 0 0 1 1.143.687.958.958 0 0 1-.7 1.264 4.344 4.344 0 0 1-.994.092q-7.647.008-15.294 0a4.618 4.618 0 0 1-.872-.069.986.986 0 0 1 .167-1.963c1.107-.018 2.215-.007 3.322-.008z" style="fill:#fcfbfa" transform="translate(-809.162 -1498.497)"/>
      <path data-name="Path 677" d="M844.532 1518.139h-7.588a2.03 2.03 0 0 1-.8-.088.966.966 0 0 1-.659-.969.921.921 0 0 1 .657-.9 2.166 2.166 0 0 1 .676-.1q7.713-.008 15.427 0a2.221 2.221 0 0 1 .56.046 1 1 0 0 1 0 1.963 2.825 2.825 0 0 1-.684.047q-3.795.004-7.589.001z" style="fill:#fcfbfa" transform="translate(-809.162 -1498.497)"/>
      <path data-name="Path 678" d="M831.148 1518.134c-.459 0-.92.019-1.378-.005a1.022 1.022 0 1 1 .018-2.039c.939-.025 1.88-.026 2.818 0a1.021 1.021 0 0 1 1.078.995 1.033 1.033 0 0 1-1.1 1.043c-.474.026-.955.006-1.436.006z" style="fill:#fcfbfa" transform="translate(-809.162 -1498.497)"/>
      <path data-name="Path 679" d="M851.473 1511.427c.4 0 .792-.018 1.187 0a.984.984 0 0 1 .167 1.943 8.128 8.128 0 0 1-2.8 0 .887.887 0 0 1-.76-1.052.921.921 0 0 1 .953-.889c.419-.021.837-.003 1.253-.002z" style="fill:#fcfbfa" transform="translate(-809.162 -1498.497)"/>
      <path data-name="Path 680" d="M856.5 1523.485h8.154c2.775 0 3.993 1.208 3.993 3.96 0 .9.014 1.8 0 2.7a3.269 3.269 0 0 1-3.365 3.31q-4.923.012-9.847 0a2.384 2.384 0 0 1-.622-.051.94.94 0 0 1-.745-.9.97.97 0 0 1 .64-.984 2.277 2.277 0 0 1 .927-.117h9.408c1.181 0 1.542-.361 1.547-1.527 0-.962.008-1.923 0-2.885-.009-.992-.433-1.435-1.4-1.436q-8.718-.009-17.437 0a1.256 1.256 0 0 0-1.41 1.388q-.023 1.567 0 3.136a1.194 1.194 0 0 0 1.323 1.321c.92.015 1.84 0 2.76.008a3.65 3.65 0 0 1 .686.048.98.98 0 0 1 .866 1.054.966.966 0 0 1-.986.938c-1.254.022-2.511.054-3.762-.012a3.138 3.138 0 0 1-2.847-2.666 18.254 18.254 0 0 1-.048-4.192 3.212 3.212 0 0 1 3.456-3.082c2.893-.019 5.8-.01 8.709-.011z" style="fill:#fcfbfa" transform="translate(-809.162 -1498.497)"/>
      <path data-name="Path 681" d="M861.423 1551.006c0-1.65-.006-3.3 0-4.95a2.52 2.52 0 0 1 2.537-2.622c.688-.028 1.378-.016 2.067-.006a2.571 2.571 0 0 1 2.712 2.608q.061 4.98 0 9.962a2.767 2.767 0 0 1-2.912 2.8c-.564.005-1.128.01-1.692 0a2.723 2.723 0 0 1-2.714-2.715v-.125zm5.277.042v-4.7c0-.735-.114-.846-.827-.856-.5-.008-1-.006-1.5 0-.785.007-.9.114-.9.92-.006 1.817 0 3.635 0 5.452 0 1.3-.007 2.591 0 3.886.007.809.194.983 1.012 1q.6.01 1.19 0c.822-.013 1.023-.214 1.026-1.059l-.001-4.643z" style="fill:#fcfbfa" transform="translate(-809.162 -1498.497)"/>
      <path data-name="Path 682" d="M856.466 1558.8c-.522 0-1.045.01-1.567 0a2.038 2.038 0 0 1-2.1-1.979 38.693 38.693 0 0 1 0-3.32 2.04 2.04 0 0 1 2.065-2.025 44.242 44.242 0 0 1 3.258 0 2.028 2.028 0 0 1 1.994 2.082q.027 1.6 0 3.195a2.029 2.029 0 0 1-2.024 2.044c-.54.013-1.083.003-1.626.003zm-1.621-3.729v.063c0 1.607 0 1.607 1.626 1.61 1.6 0 1.6 0 1.6-1.583 0-1.637 0-1.637-1.664-1.637-1.562-.003-1.562-.003-1.562 1.544z" style="fill:#fcfbfa" transform="translate(-809.162 -1498.497)"/>
      <path data-name="Path 683" d="M860.122 1547.132c0 .543.014 1.087 0 1.629a2.011 2.011 0 0 1-1.945 1.992c-1.148.039-2.3.041-3.445 0a2.011 2.011 0 0 1-1.928-2.019 39.306 39.306 0 0 1 0-3.257 2.068 2.068 0 0 1 2.115-2.043q1.535-.033 3.069 0a2.056 2.056 0 0 1 2.139 2.2c.007.5 0 1 0 1.5zm-5.277-.066c0 1.645 0 1.656 1.656 1.643 1.809-.015 1.555.249 1.569-1.55.012-1.67 0-1.67-1.633-1.67-1.592 0-1.592 0-1.592 1.577z" style="fill:#fcfbfa" transform="translate(-809.162 -1498.497)"/>
      <path data-name="Path 684" d="M860.124 1538.676c0 .481.005.961 0 1.441a2.053 2.053 0 0 1-2.065 2.208 34.718 34.718 0 0 1-3.194 0 2.09 2.09 0 0 1-2.072-2.158 62.801 62.801 0 0 1 0-3.069 2.036 2.036 0 0 1 2.109-2.091q1.566-.016 3.132 0a2.026 2.026 0 0 1 2.088 2.1c.009.525.001 1.047.002 1.569zm-5.279.007c0 1.6 0 1.6 1.615 1.6s1.612 0 1.612-1.616 0-1.611-1.625-1.613c-1.602 0-1.602 0-1.602 1.629z" style="fill:#fcfbfa" transform="translate(-809.162 -1498.497)"/>
      <path data-name="Path 685" d="M861.427 1538.6c0-.563-.02-1.128 0-1.691a1.963 1.963 0 0 1 1.891-1.895 65.086 65.086 0 0 1 3.507 0 2.006 2.006 0 0 1 1.912 2.028 36.829 36.829 0 0 1 0 3.256 2.063 2.063 0 0 1-2.013 2.02 32.207 32.207 0 0 1-3.318-.005 2.022 2.022 0 0 1-1.984-2.147c-.005-.522 0-1.044 0-1.566zm5.273.144c0-1.7 0-1.705-1.66-1.7-1.8.008-1.564-.194-1.569 1.552-.005 1.682 0 1.683 1.673 1.683 1.556.007 1.556.007 1.556-1.53z" style="fill:#fcfbfa" transform="translate(-809.162 -1498.497)"/>
      <path data-name="Path 686" d="M851.6 1555.15c0 .564.014 1.128 0 1.691a1.961 1.961 0 0 1-1.905 1.946c-1.147.034-2.3.031-3.445 0a1.914 1.914 0 0 1-1.887-1.691 15.1 15.1 0 0 1-.009-3.87 1.932 1.932 0 0 1 1.915-1.745 34.384 34.384 0 0 1 3.443 0 1.979 1.979 0 0 1 1.891 2.036c.012.547-.003 1.09-.003 1.633zm-3.593-1.629h-.125c-1.56 0-1.56 0-1.56 1.534 0 1.682 0 1.685 1.662 1.685 1.826 0 1.639.222 1.644-1.621.006-1.598-.001-1.598-1.619-1.598z" style="fill:#fcfbfa" transform="translate(-809.162 -1498.497)"/>
      <path data-name="Path 687" d="M847.917 1550.765c-.522 0-1.045.013-1.566 0a1.965 1.965 0 0 1-1.995-1.725 15.4 15.4 0 0 1-.012-3.808 1.982 1.982 0 0 1 2.01-1.791 49.095 49.095 0 0 1 3.256 0 2.006 2.006 0 0 1 1.991 2.068q.024 1.6 0 3.194a1.994 1.994 0 0 1-2.056 2.062c-.545.011-1.086.001-1.628 0zm.05-2.057h1.191c.3 0 .472-.112.47-.441q-.011-1.159 0-2.321c0-.316-.133-.46-.449-.457-.439.005-.878 0-1.317 0-1.538 0-1.538 0-1.538 1.566.001 1.656.001 1.656 1.643 1.653z" style="fill:#fcfbfa" transform="translate(-809.162 -1498.497)"/>
      <path data-name="Path 688" d="M851.6 1538.625c0 .5.006 1 0 1.5a2.04 2.04 0 0 1-2.062 2.2 36.71 36.71 0 0 1-3.13 0 2.071 2.071 0 0 1-2.113-2.051 26.561 26.561 0 0 1 .007-3.254 2.01 2.01 0 0 1 2.236-2.016c1 0 2-.011 3.006 0a1.973 1.973 0 0 1 2.054 2.048c.016.529.002 1.048.002 1.573zm-3.628 1.661c1.652 0 1.652 0 1.652-1.563 0-1.673 0-1.673-1.683-1.673-1.621 0-1.621 0-1.621 1.611s.005 1.625 1.657 1.625z" style="fill:#fcfbfa" transform="translate(-809.162 -1498.497)"/>
      <path data-name="Path 689" d="M821.273 1558.794a.952.952 0 0 1-.918-.6 1.146 1.146 0 0 0-.687-.669 1.821 1.821 0 0 1-.88-.773 1.033 1.033 0 0 1 .2-1.367.842.842 0 0 1 1.277.086 1.174 1.174 0 0 0 .825.393c.324 0 .655 0 .767-.384a.671.671 0 0 0-.405-.824c-.39-.2-.8-.35-1.2-.53a2.249 2.249 0 0 1-1.475-2.315 2.15 2.15 0 0 1 1.017-1.838 1 1 0 0 0 .511-.661.931.931 0 0 1 .857-.718.851.851 0 0 1 .938.489 1.449 1.449 0 0 0 .909.77 1.028 1.028 0 0 1 .663 1.31.963.963 0 0 1-1.268.587 2.477 2.477 0 0 0-1.09-.234c-.194.02-.385.044-.44.273a.388.388 0 0 0 .25.456c.413.2.842.365 1.255.567a2.741 2.741 0 0 1 1.168 3.889 1.707 1.707 0 0 1-.578.648 1.785 1.785 0 0 0-.862.931.867.867 0 0 1-.834.514z" style="fill:#fcfbfa" transform="translate(-809.162 -1498.497)"/>
    </g>
  </g>
</svg>