<svg width="164" height="144" viewBox="0 0 164 144" fill="none" xmlns="http://www.w3.org/2000/svg">
<path d="M120.201 49.8281C120.068 55.624 123.62 61.5424 129.099 63.451C132.083 64.4899 135.355 64.3427 138.412 65.1412C141.469 65.9381 144.586 68.2387 144.606 71.3946C144.619 73.4912 143.429 78.2484 149.714 81.0341C154.899 83.3333 153.661 95.7688 137.604 100.998C132.684 102.601 135.855 98.5692 130.742 97.7839C125.692 97.0073 121.111 94.1545 117.627 90.4216C114.142 86.6888 111.677 82.1123 109.756 77.3814C107.545 71.9352 105.998 65.9192 107.364 60.2019C108.731 54.4846 113.776 49.321 120.201 49.8281Z" fill="#ACD4F7"/>
<path d="M135.775 101.718C134.681 101.718 134.272 101.128 133.863 100.31C133.431 99.4507 132.941 98.4759 130.686 98.1306C125.908 97.3963 121.178 94.7431 117.368 90.6606C114.27 87.3415 111.674 83.0419 109.43 77.514C106.609 70.5699 105.845 65.0435 107.022 60.1218C108.352 54.5619 113.435 48.9422 120.227 49.4798C120.412 49.4944 120.555 49.6518 120.551 49.8382C120.415 55.7406 124.058 61.3267 129.213 63.1217C130.839 63.6885 132.602 63.8998 134.307 64.1052C135.69 64.2713 137.121 64.4432 138.499 64.8031C141.594 65.6103 144.934 68.0173 144.956 71.3946C144.958 71.6685 144.94 71.9847 144.921 72.3198C144.785 74.7311 144.578 78.3766 149.855 80.7151C151.801 81.5776 152.924 83.7908 152.785 86.4892C152.546 91.1501 148.454 97.8348 137.712 101.333C136.889 101.6 136.263 101.718 135.775 101.718ZM119.331 50.1442C113.349 50.1442 108.913 55.2408 107.706 60.2835C106.564 65.0566 107.318 70.4476 110.08 77.2488C112.293 82.6951 114.844 86.9263 117.882 90.1812C121.585 94.1486 126.17 96.7261 130.792 97.4356C133.405 97.8378 134.032 99.0835 134.49 99.9941C134.949 100.906 135.202 101.409 137.493 100.663C147.896 97.2739 151.855 90.8893 152.084 86.4513C152.206 84.0501 151.244 82.0963 149.571 81.3547C143.851 78.818 144.082 74.7239 144.22 72.2776C144.239 71.9395 144.256 71.6481 144.253 71.3961C144.234 68.3888 141.165 66.2208 138.321 65.4792C136.99 65.1324 135.584 64.9634 134.224 64.7988C132.481 64.5889 130.68 64.3719 128.982 63.7803C123.647 61.9226 119.846 56.2272 119.845 50.1544C119.673 50.1486 119.501 50.1442 119.331 50.1442Z" fill="black"/>
<path d="M88.8104 36.5868C90.5023 44.8232 92.1359 53.6877 88.7594 61.3894C87.6626 63.8925 86.067 66.1713 85.1642 68.7516C84.0921 71.8186 84.0586 75.1522 84.3518 78.3882C84.906 84.5033 86.7452 90.7771 91.0493 95.1598C95.3534 99.5425 102.557 101.454 107.867 98.3623C112.527 95.6493 114.655 89.8199 114.362 84.4392C114.069 79.0584 111.77 74.0099 109.346 69.1975C103.52 57.6347 96.7287 46.5571 88.8104 36.5868Z" fill="#ACD4F7"/>
<path d="M102.001 100.216C98.0488 100.216 93.8643 98.5269 90.7985 95.406C86.9553 91.4925 84.6683 85.7781 84.0018 78.4188C83.6386 74.4062 83.9012 71.297 84.8317 68.6351C85.3641 67.111 86.1414 65.6788 86.8926 64.2932C87.4279 63.3053 87.9821 62.2854 88.4357 61.248C91.6342 53.9528 90.3405 45.7951 88.4649 36.6567C88.4328 36.4979 88.513 36.3362 88.6603 36.2677C88.8076 36.1992 88.9826 36.24 89.0847 36.3683C96.5494 45.7674 103.472 56.759 109.659 69.0386C112.051 73.7841 114.41 78.8822 114.712 84.4202C115.045 90.5222 112.427 96.1127 108.044 98.6653C106.246 99.7115 104.158 100.216 102.001 100.216ZM89.4479 37.9666C91.1792 46.6401 92.1899 54.4395 89.0804 61.5307C88.6136 62.5943 88.0536 63.6288 87.511 64.6297C86.773 65.9906 86.0102 67.3981 85.4953 68.8682C84.5998 71.4325 84.3475 74.447 84.7019 78.3562C85.3538 85.5494 87.5737 91.1195 91.3002 94.915C95.8202 99.5177 102.866 100.87 107.691 98.0592C111.849 95.6377 114.33 90.2992 114.011 84.4581C113.716 79.0555 111.39 74.0347 109.031 69.3548C103.12 57.6216 96.5363 47.0685 89.4479 37.9666Z" fill="black"/>
<path d="M100.734 76.7593C100.886 72.3694 100.343 69.9099 100.167 66.6258C101.94 65.7385 103.855 65.1208 105.814 64.806C106.695 64.6647 107.687 64.6093 108.364 65.1397C108.788 65.4719 110.798 63.7016 111.006 64.1883C112.437 67.5408 112.56 72.3184 113.991 75.6695C114.101 75.9273 119.114 75.4626 119.225 75.7219C119.692 76.8132 119.301 85.9005 118.954 86.1308C100.609 98.3157 91.7729 80.8899 91.7729 80.8899C91.7729 80.8899 95.0998 78.853 100.734 76.7593Z" fill="white"/>
<path d="M106.606 90.8121C105.276 90.8121 103.976 90.646 102.706 90.3109C95.2325 88.3439 91.6095 81.3474 91.4593 81.0502C91.3762 80.887 91.4331 80.6874 91.5891 80.5927C91.6227 80.5723 94.9218 78.5674 100.39 76.5145C100.471 73.7418 100.27 71.7356 100.078 69.7919C99.9785 68.7909 99.8749 67.755 99.8151 66.6462C99.8079 66.5064 99.8837 66.3767 100.009 66.314C101.822 65.4078 103.756 64.7842 105.759 64.4607C106.632 64.3194 107.733 64.2364 108.536 64.8308C108.731 64.8075 109.25 64.503 109.568 64.3165C110.28 63.8998 110.7 63.6696 111.036 63.7803C111.17 63.8255 111.275 63.9216 111.33 64.0513C112.061 65.7618 112.459 67.8468 112.844 69.8648C113.212 71.7865 113.591 73.7724 114.253 75.3883C114.637 75.4261 115.751 75.381 116.588 75.3475C119.161 75.244 119.41 75.2644 119.547 75.5879C119.874 76.3513 119.794 79.8117 119.744 81.2658C119.578 86.1409 119.288 86.3347 119.148 86.428C114.753 89.3449 110.551 90.8121 106.606 90.8121ZM92.2455 81.021C93.0141 82.36 96.5641 87.9709 102.891 89.6334C107.7 90.8966 113.013 89.6378 118.684 85.8903C118.983 84.9243 119.27 77.4193 118.945 76.006C118.547 75.9711 117.446 76.0148 116.616 76.0483C114.053 76.1503 113.804 76.1313 113.667 75.8093C112.936 74.0988 112.538 72.0138 112.153 69.9959C111.787 68.0785 111.407 66.097 110.747 64.4826C110.544 64.5584 110.178 64.7711 109.921 64.9226C109.151 65.3728 108.543 65.7298 108.145 65.418C107.553 64.9547 106.618 65.0333 105.868 65.1543C104.013 65.453 102.217 66.0212 100.528 66.84C100.588 67.8424 100.679 68.7574 100.775 69.7234C100.976 71.7428 101.185 73.8322 101.083 76.7739C101.078 76.9167 100.988 77.042 100.854 77.0915C96.2505 78.8006 93.1672 80.4921 92.2455 81.021Z" fill="black"/>
<path d="M86.9131 38.6091C87.4528 42.6742 88.2754 46.9403 87.2223 50.9893C86.6477 53.1966 86.7016 64.4214 95.7167 67.6166C100.455 69.2965 105.899 68.9498 110.788 65.9891C114.103 63.9799 118.128 57.7396 117.328 51.5444C120.071 52.305 122.784 50.456 122.816 47.9908C122.835 46.5702 121.266 44.7897 119.609 44.8713C118.327 44.934 118.173 44.9471 117.198 45.6916C116.531 42.7849 116.127 39.8272 116.181 36.4834C113.063 33.0521 108.063 31.2993 103.063 30.5504C101.411 30.3028 99.7131 30.1498 98.0343 30.3596C93.2343 30.9555 86.3589 34.4334 86.9131 38.6091Z" fill="white"/>
<path d="M101.558 68.9847C99.5613 68.9847 97.5573 68.6409 95.5985 67.9459C86.5688 64.7448 86.1765 53.6046 86.8809 50.8989C87.7881 47.4109 87.2704 43.7174 86.7686 40.1463C86.6986 39.6465 86.6286 39.1482 86.563 38.6543C86.4069 37.4785 86.7745 36.3027 87.6569 35.1633C89.8038 32.3848 94.5834 30.4339 97.9905 30.0084C99.8472 29.7768 101.704 29.9895 103.114 30.2008C107.251 30.82 112.92 32.3717 116.441 36.2444C116.501 36.31 116.534 36.3974 116.533 36.4863C116.486 39.3362 116.77 42.0826 117.424 45.0884C118.114 44.612 118.446 44.5756 119.593 44.5187C120.414 44.475 121.292 44.8466 121.999 45.527C122.731 46.2322 123.179 47.1778 123.169 47.9937C123.153 49.1957 122.55 50.3307 121.513 51.1073C120.45 51.9028 119.068 52.2204 117.733 51.9917C118.305 58.3049 114.238 64.3092 110.971 66.2878C108.016 68.077 104.799 68.9847 101.558 68.9847ZM99.6955 30.6102C99.1631 30.6102 98.6191 30.6379 98.078 30.7049C94.8124 31.1128 90.2457 32.9632 88.214 35.5917C87.4512 36.5781 87.1304 37.5776 87.2616 38.5625C87.3273 39.055 87.3973 39.5518 87.4673 40.0501C87.9778 43.6897 88.5057 47.4531 87.5635 51.0767C87.1697 52.592 86.6738 64.0367 95.8362 67.2859C100.772 69.0357 106.018 68.469 110.607 65.689C113.713 63.8065 117.771 57.7032 116.98 51.5881C116.966 51.4716 117.01 51.355 117.098 51.2778C117.187 51.2005 117.309 51.1729 117.422 51.2049C118.697 51.5575 120.068 51.3127 121.09 50.5464C121.951 49.9009 122.453 48.9684 122.464 47.9849C122.473 47.3555 122.107 46.6081 121.509 46.0326C120.942 45.4847 120.256 45.1904 119.625 45.2195C118.381 45.2807 118.306 45.2837 117.409 45.9684C117.314 46.0413 117.189 46.0602 117.077 46.0194C116.964 45.9786 116.88 45.8839 116.853 45.7674C116.115 42.5489 115.787 39.6363 115.825 36.6145C112.437 32.9691 106.995 31.4917 103.008 30.8943C102.061 30.753 100.906 30.6102 99.6955 30.6102Z" fill="black"/>
<path d="M106.606 55.0733C103.67 55.0733 101.072 52.6546 100.649 49.3793C100.193 45.8504 102.432 42.6421 105.639 42.2283C107.2 42.0273 108.751 42.5081 110.009 43.5833C111.256 44.6499 112.064 46.1753 112.284 47.8786C112.504 49.5818 112.11 51.2617 111.176 52.6095C110.233 53.9689 108.855 54.8285 107.294 55.0296C107.064 55.0587 106.834 55.0733 106.606 55.0733ZM106.332 42.8854C106.132 42.8854 105.931 42.8985 105.729 42.9248C102.906 43.289 100.94 46.1448 101.347 49.289C101.754 52.4346 104.379 54.6974 107.204 54.3331C108.565 54.1583 109.77 53.4035 110.598 52.2103C111.434 51.0053 111.785 49.4988 111.587 47.9689C111.388 46.4391 110.667 45.0709 109.552 44.1181C108.611 43.3109 107.487 42.8854 106.332 42.8854Z" fill="black"/>
<path d="M90.3113 55.8193C87.3753 55.8193 84.7777 53.4006 84.3547 50.1253C83.8982 46.5964 86.137 43.3881 89.3443 42.9743C90.9049 42.7732 92.4568 43.2541 93.714 44.3293C94.9611 45.3959 95.7691 46.9213 95.9893 48.6246C96.2096 50.3278 95.8158 52.0077 94.8809 53.3555C93.9387 54.7148 92.5604 55.5745 90.9997 55.7755C90.7678 55.8047 90.5389 55.8193 90.3113 55.8193ZM90.0371 43.6314C89.8358 43.6314 89.636 43.6445 89.4348 43.6708C86.6111 44.035 84.645 46.8907 85.0519 50.035C85.4588 53.1806 88.0871 55.4433 90.9093 55.0791C92.2701 54.9043 93.4748 54.1495 94.3033 52.9562C95.139 51.7513 95.4905 50.2448 95.2922 48.7149C95.0938 47.1851 94.3718 45.8169 93.2575 44.864C92.3153 44.0569 91.1908 43.6314 90.0371 43.6314Z" fill="black"/>
<path d="M120.928 13.7658C119.263 8.29181 113.471 5.20296 107.991 6.8654C102.512 8.5293 99.4197 14.3151 101.084 19.789C102.749 25.263 108.541 28.3518 114.021 26.6894C119.501 25.0255 122.593 19.2397 120.928 13.7658Z" fill="#ACD4F7"/>
<path d="M111.012 27.4878C106.415 27.4878 102.153 24.5068 100.748 19.891C99.0303 14.2408 102.233 8.24664 107.889 6.53029C110.63 5.69834 113.529 5.98246 116.056 7.33018C118.582 8.67791 120.431 10.9275 121.264 13.6638C122.097 16.4015 121.812 19.298 120.463 21.8215C119.114 24.3451 116.862 26.1925 114.123 27.0245C113.089 27.3377 112.042 27.4878 111.012 27.4878ZM111.019 6.76487C110.041 6.76487 109.056 6.90911 108.093 7.20197C102.808 8.80613 99.8149 14.4068 101.421 19.687C103.027 24.9672 108.635 27.9584 113.919 26.3528C116.48 25.5762 118.583 23.8482 119.843 21.4908C121.103 19.1334 121.369 16.4248 120.592 13.8678C119.814 11.3107 118.086 9.20826 115.724 7.94941C114.251 7.16263 112.643 6.76487 111.019 6.76487Z" fill="black"/>
<path d="M116.833 46.1112C114.194 42.0302 112.58 39.0914 111.711 34.1259C101.984 39.868 92.7455 38.8816 83.4285 38.5188C83.2301 36.9365 83.5612 35.3105 84.219 33.8127C85.8307 30.1396 87.842 26.9604 93.466 24.4558C97.4069 22.7016 102.712 21.536 106.979 22.1523C111.219 22.7642 114.865 25.0546 117.835 27.804C120.198 29.991 122.194 33.5766 122.9 37.1201C123.504 40.155 122.76 42.3915 121.401 45.4818C120.637 45.0695 119.916 44.6542 119.031 44.8233C118.141 44.9908 117.571 45.441 116.833 46.1112Z" fill="#ACD4F7"/>
<path d="M116.833 46.4624C116.818 46.4624 116.802 46.4609 116.788 46.4595C116.686 46.4464 116.594 46.3881 116.538 46.3021C114.165 42.6305 112.398 39.6188 111.455 34.681C102.62 39.7223 94.0655 39.3405 85.7913 38.9719C84.9994 38.937 84.2074 38.9005 83.4154 38.8699C83.2433 38.8626 83.1018 38.733 83.08 38.5625C82.886 37.0225 83.1689 35.3309 83.8967 33.6713C85.3713 30.313 87.3126 26.8103 93.3217 24.1353C96.8542 22.5617 102.31 21.1236 107.027 21.8055C110.836 22.3563 114.552 24.2868 118.071 27.5476C120.551 29.8438 122.533 33.4863 123.242 37.0516C123.891 40.3138 122.979 42.7616 121.719 45.6231C121.68 45.712 121.604 45.782 121.512 45.814C121.419 45.8461 121.318 45.8373 121.23 45.7907L121.136 45.7397C120.43 45.358 119.821 45.0301 119.094 45.1686C118.271 45.3259 117.736 45.7674 117.068 46.3735C117.004 46.4303 116.919 46.4624 116.833 46.4624ZM111.711 33.7748C111.76 33.7748 111.811 33.785 111.858 33.8068C111.963 33.8549 112.037 33.9511 112.056 34.0647C112.923 39.0113 114.613 42.0083 116.906 45.5751C117.516 45.0462 118.105 44.6411 118.962 44.4765C119.832 44.3089 120.548 44.6295 121.229 44.9893C122.563 41.9049 123.093 39.8957 122.553 37.1856C121.882 33.8098 119.935 30.227 117.594 28.059C114.181 24.8987 110.592 23.0265 106.927 22.4976C102.357 21.8376 97.0511 23.2407 93.6075 24.7749C87.8274 27.3494 85.9591 30.7195 84.5399 33.9525C83.9099 35.3892 83.6371 36.8432 83.745 38.1793C84.4378 38.207 85.1292 38.2376 85.8205 38.2682C94.1297 38.6383 102.722 39.0215 111.531 33.8214C111.587 33.7908 111.648 33.7748 111.711 33.7748Z" fill="black"/>
<path d="M102.744 61.6793C102.042 61.6793 101.393 61.4622 100.881 61.0353C100.732 60.9115 100.712 60.69 100.836 60.5414C100.96 60.3928 101.182 60.3724 101.33 60.4962C101.993 61.0484 102.984 61.13 103.982 60.7133C105.098 60.2485 106.014 59.3496 106.561 58.1825C106.642 58.0077 106.852 57.9305 107.027 58.0135C107.204 58.0951 107.28 58.3049 107.197 58.4797C106.575 59.8056 105.53 60.8284 104.252 61.3602C103.743 61.5744 103.231 61.6793 102.744 61.6793Z" fill="black"/>
<path d="M106.193 48.9058C106.128 48.3973 105.639 48.0403 105.102 48.1102C104.566 48.1787 104.183 48.6479 104.249 49.1564C104.315 49.6649 104.803 50.0218 105.34 49.9519C105.877 49.882 106.259 49.4143 106.193 48.9058Z" fill="black"/>
<path d="M91.6808 49.6678C91.6152 49.1593 91.1265 48.8023 90.5898 48.8723C90.0531 48.9422 89.671 49.4099 89.7366 49.9184C89.8022 50.4269 90.2908 50.7839 90.8276 50.7139C91.3643 50.6454 91.7464 50.1763 91.6808 49.6678Z" fill="black"/>
<path d="M97.127 55.5992C97.0847 55.5992 97.0438 55.592 97.0015 55.5759L95.6787 55.0747C95.5153 55.0121 95.2119 54.897 95.0953 54.5925C94.9523 54.2224 95.1944 53.8989 95.3242 53.7241C96.3204 52.3895 96.6515 50.6585 96.2125 49.0966C96.16 48.9101 96.2694 48.7164 96.4561 48.6639C96.6427 48.6115 96.8367 48.7207 96.8892 48.9072C97.388 50.6775 97.0132 52.6357 95.8887 54.1452C95.861 54.183 95.7822 54.2879 95.7603 54.3462C95.7793 54.355 95.8274 54.3812 95.9295 54.4191L97.2539 54.9217C97.4347 54.9902 97.5266 55.1927 97.4581 55.3749C97.4026 55.5133 97.2684 55.5992 97.127 55.5992Z" fill="black"/>
<path d="M95.403 47.7125C95.2119 47.7125 95.0544 47.5595 95.0515 47.3672C95.0354 46.4566 95.9208 45.8213 96.8061 45.5969C98.2442 45.2312 99.8763 45.6071 100.964 46.5542C101.11 46.6809 101.126 46.9039 100.998 47.0496C100.871 47.1953 100.649 47.2113 100.502 47.0831C99.5831 46.2832 98.199 45.967 96.9782 46.2773C96.3627 46.4332 95.7443 46.8543 95.753 47.3555C95.7559 47.5493 95.6013 47.7096 95.4074 47.7125C95.4074 47.7125 95.4059 47.7125 95.403 47.7125Z" fill="black"/>
<path d="M111.59 46.1724C111.396 46.1724 111.238 46.0165 111.238 45.8228C111.238 45.629 111.394 45.4716 111.588 45.4702L116.39 45.4556C116.39 45.4556 116.39 45.4556 116.391 45.4556C116.585 45.4556 116.742 45.6115 116.742 45.8053C116.742 45.9991 116.586 46.1564 116.392 46.1579L111.59 46.1724Z" fill="black"/>
<path d="M117.268 49.4915C117.266 49.4915 117.265 49.4915 117.263 49.4915C117.069 49.49 116.913 49.3312 116.916 49.1374C116.928 47.9689 116.693 46.7815 116.237 45.7062C116.161 45.5284 116.244 45.3215 116.423 45.2458C116.601 45.17 116.808 45.2531 116.884 45.4323C117.379 46.5964 117.632 47.88 117.619 49.1447C117.616 49.3356 117.46 49.4915 117.268 49.4915Z" fill="black"/>
<path d="M152.446 114.248C148.2 102.655 145.856 91.2157 135.839 82.8627C131.032 78.853 125.231 76.0089 118.55 75.5806C118.14 82.0424 110.626 86.3012 106.599 86.782C104.406 87.0443 96.2635 88.1254 96.2635 78.5368C93.6061 79.5932 84.766 80.6786 81.2218 91.5595C79.7721 96.0092 77.1745 113.042 68.6144 122.914C66.5929 125.245 64.7246 109.731 61.8148 110.764C58.9605 111.778 55.6715 113.474 55.4571 116.493C55.2894 118.846 57.2307 120.895 59.3995 121.826C64.0609 123.826 65.8068 133.521 70.8299 134.228C76.0529 134.964 84.3927 136.887 90.7066 117.171C93.9328 120.394 96.0156 123.855 99.6342 125.805C110.065 131.422 144.771 137.729 150.426 138.731C150.895 138.815 151.961 138.43 152.148 137.993C153.337 135.217 156.446 125.173 152.446 114.248Z" fill="white"/>
<path d="M150.558 139.093C150.488 139.093 150.423 139.088 150.366 139.077C143.689 137.894 109.857 131.707 99.4693 126.114C96.9592 124.762 95.1769 122.706 93.2925 120.528C92.5239 119.64 91.7334 118.727 90.8656 117.829C88.1775 126.006 84.9119 131.126 80.8922 133.475C77.3684 135.533 74.0109 135.044 71.3141 134.652C71.1347 134.626 70.9583 134.601 70.7847 134.576C67.9289 134.174 66.1014 131.089 64.3337 128.107C62.8547 125.613 61.3262 123.034 59.2639 122.148C57.063 121.202 54.9233 119.079 55.11 116.467C55.2909 113.916 57.4466 111.942 61.6996 110.432C62.0161 110.32 62.3341 110.342 62.6476 110.498C63.9953 111.171 65.0221 114.458 66.0168 117.637C66.6819 119.764 67.592 122.677 68.1842 122.799C68.2338 122.808 68.3271 122.713 68.3519 122.683C75.1661 114.825 78.2158 102.21 79.8538 95.4323C80.2709 93.7057 80.6005 92.3405 80.8908 91.4488C84.0003 81.904 91.2477 79.7185 94.7306 78.6665C95.2951 78.4961 95.7822 78.3489 96.1366 78.2076C96.2446 78.1639 96.3671 78.1784 96.4633 78.244C96.5596 78.3096 96.6179 78.4174 96.6179 78.5339C96.6179 81.4305 97.3822 83.5781 98.8918 84.9142C101.313 87.0603 105.07 86.6086 106.485 86.4396L106.559 86.4309C110.411 85.9705 117.804 81.8311 118.203 75.5558C118.208 75.4626 118.251 75.3766 118.321 75.314C118.391 75.2528 118.485 75.2207 118.576 75.2265C124.802 75.6258 130.687 78.1027 136.068 82.5888C144.408 89.5431 147.453 98.5444 150.676 108.073C151.346 110.052 152.037 112.097 152.78 114.121C156.408 124.03 154.295 133.872 152.475 138.125C152.233 138.689 151.188 139.093 150.558 139.093ZM90.708 116.82C90.7999 116.82 90.8904 116.856 90.956 116.923C92.0032 117.969 92.9279 119.037 93.822 120.069C95.6641 122.196 97.4041 124.205 99.8019 125.496C110.095 131.04 143.83 137.206 150.488 138.386C150.849 138.449 151.721 138.102 151.827 137.854C152.023 137.397 156.567 126.519 152.117 114.367C151.374 112.335 150.679 110.285 150.008 108.302C146.817 98.8679 143.802 89.9583 135.616 83.1308C130.453 78.8253 124.821 76.4125 118.873 75.9536C118.509 79.5334 116.123 82.1313 114.151 83.6976C111.868 85.5101 108.921 86.8563 106.641 87.1288L106.566 87.1375C105.066 87.3182 101.08 87.7946 98.4221 85.4401C96.8469 84.0443 96.0054 81.8894 95.9193 79.0308C95.6276 79.1284 95.2951 79.2289 94.9304 79.3382C91.3031 80.4324 84.5502 82.4708 81.5558 91.6659C81.2729 92.5314 80.9462 93.8849 80.5334 95.5969C78.8809 102.432 75.8064 115.156 68.8799 123.142C68.5648 123.506 68.2469 123.529 68.0369 123.485C67.0874 123.287 66.4267 121.314 65.343 117.845C64.4824 115.092 63.4104 111.663 62.3311 111.124C62.1926 111.054 62.0671 111.045 61.933 111.092C57.9716 112.498 55.9676 114.273 55.8087 116.515C55.6482 118.772 57.6303 120.682 59.5395 121.501C61.8119 122.476 63.4002 125.157 64.936 127.747C66.6965 130.718 68.3592 133.523 70.881 133.878C71.0545 133.903 71.2325 133.929 71.4133 133.955C76.5692 134.707 84.3606 135.841 90.374 117.061C90.412 116.945 90.5068 116.856 90.6264 116.827C90.6526 116.824 90.6803 116.82 90.708 116.82Z" fill="black"/>
<path d="M76.9338 137.72C84.8404 137.889 92.7471 138.06 100.654 138.229L100.684 134.205L74.2852 133.561L76.9338 137.72Z" fill="white"/>
<path d="M100.654 138.58C100.651 138.58 100.649 138.58 100.646 138.58L76.9266 138.071C76.8099 138.069 76.7005 138.007 76.6378 137.908L73.9877 133.749C73.9176 133.639 73.9147 133.501 73.9789 133.387C74.0431 133.275 74.1554 133.207 74.2939 133.209L100.693 133.853C100.884 133.858 101.037 134.015 101.036 134.207L101.005 138.232C101.005 138.325 100.966 138.415 100.899 138.481C100.832 138.544 100.744 138.58 100.654 138.58ZM77.1293 137.374L100.304 137.87L100.328 134.547L74.9328 133.928L77.1293 137.374Z" fill="black"/>
<path d="M139.991 125.43C130.464 124.9 120.88 124.244 111.295 123.586C110.437 123.445 106.173 122.836 105.121 122.681C104.23 122.55 103.378 122.222 102.56 121.845C99.71 120.531 93.593 117.95 92.2278 118.712C89.0833 119.636 86.2333 121.905 84.0062 124.775C82.7562 126.386 81.7309 129.056 82.2486 129.514C82.5783 129.806 83.0742 129.927 83.4388 129.624C84.9221 126.452 87.5635 123.835 90.7518 122.381C89.2685 123.219 87.8858 124.234 86.6446 125.4C85.3874 126.582 84.2308 128.006 83.9478 129.708C83.9259 129.841 83.9113 129.987 83.9814 130.1C84.152 130.381 84.5881 130.218 84.8477 130.014C85.3567 129.616 91.9099 124.298 93.135 124.44C91.5073 125.055 85.701 129.759 85.6776 130.26C85.6659 130.499 85.7126 130.751 85.8628 130.938C86.0685 131.193 86.4331 131.275 86.7569 131.221C87.0807 131.167 87.3724 131.001 87.6524 130.83C89.5266 129.694 91.2419 128.267 93.2663 127.425C94.277 127.006 95.5124 126.762 96.4108 127.387C94.6052 128.071 92.9148 129.066 91.4986 130.365C91.2725 130.572 91.0829 130.817 90.9327 131.085C90.7095 131.483 90.4586 132.06 90.7678 132.388C91.2725 132.925 91.6998 132.654 92.1345 132.402C93.8716 131.257 95.6466 130.314 97.5033 129.576C98.0794 129.347 98.7663 129.146 99.2885 129.48C99.7406 129.768 101.928 131.124 106.422 131.358C107.956 131.438 109.434 131.835 111.352 132.364C136.61 139.317 144.157 142.093 150.275 139.464C151.473 138.95 151.877 138.322 151.479 136.268C150.417 130.786 149.374 127.668 139.991 125.43Z" fill="white"/>
<path d="M145.155 140.808C140.315 140.808 133.422 138.882 120.459 135.261C117.727 134.497 114.631 133.633 111.264 132.707C109.481 132.216 107.941 131.792 106.409 131.713C102.204 131.496 99.8997 130.288 99.1034 129.78C98.7125 129.53 98.1145 129.716 97.6375 129.906C95.8275 130.626 94.0919 131.541 92.3315 132.701L92.2848 132.729C91.8531 132.981 91.2011 133.362 90.5171 132.634C89.9876 132.07 90.4719 131.205 90.6308 130.92C90.8029 130.615 91.0159 130.342 91.2653 130.113C92.4744 129.003 93.8906 128.091 95.4833 127.393C94.7905 127.279 94.0102 127.502 93.4049 127.754C92.0879 128.302 90.8686 129.127 89.6901 129.925C89.0906 130.332 88.4693 130.751 87.8378 131.135C87.5315 131.321 87.2004 131.508 86.8168 131.57C86.3297 131.652 85.86 131.495 85.5917 131.162C85.4021 130.928 85.3116 130.612 85.3291 130.247C85.332 130.186 85.3685 130.102 85.4356 130C85.3889 130.036 85.3423 130.074 85.2956 130.112C85.1847 130.199 85.1074 130.262 85.0666 130.294C84.8318 130.478 84.4613 130.651 84.1317 130.593C83.9421 130.558 83.7831 130.448 83.6839 130.285C83.6183 130.177 83.5906 130.067 83.5833 129.957C83.1268 130.271 82.4967 130.205 82.0168 129.778C81.1724 129.029 82.6673 125.932 83.7306 124.561C86.1649 121.424 89.0571 119.289 92.0981 118.386C93.7448 117.564 100.057 120.302 102.71 121.526C103.371 121.83 104.249 122.197 105.175 122.333C105.464 122.375 105.992 122.452 106.626 122.543C108.343 122.79 110.688 123.13 111.339 123.236C120.689 123.877 130.358 124.542 140.013 125.079C140.034 125.081 140.056 125.084 140.076 125.088C149.669 127.376 150.749 130.636 151.83 136.202C152.236 138.286 151.893 139.157 150.421 139.789C148.827 140.474 147.169 140.808 145.155 140.808ZM98.6425 128.956C98.9327 128.956 99.22 129.021 99.4826 129.188C100.231 129.667 102.407 130.802 106.446 131.012C108.053 131.095 109.628 131.53 111.451 132.031C114.819 132.957 117.915 133.823 120.649 134.586C138.829 139.664 144.953 141.376 150.143 139.147C151.11 138.731 151.524 138.319 151.139 136.339C150.084 130.91 149.106 127.972 139.942 125.78C130.286 125.243 120.621 124.578 111.273 123.937C111.262 123.937 111.251 123.936 111.24 123.933C110.62 123.831 108.155 123.475 106.524 123.239C105.89 123.147 105.36 123.072 105.072 123.029C104.056 122.881 103.119 122.489 102.414 122.164C97.2875 119.801 93.2649 118.537 92.4015 119.02C92.3781 119.033 92.3548 119.043 92.3286 119.05C89.4596 119.892 86.6039 122.002 84.2848 124.99C83.0072 126.638 82.2794 128.924 82.4923 129.262C82.6673 129.415 82.9474 129.519 83.1618 129.392C84.6801 126.198 87.3886 123.529 90.609 122.062C90.7811 121.983 90.9823 122.055 91.0684 122.222C91.1544 122.39 91.0917 122.595 90.9284 122.687C89.4699 123.51 88.1105 124.51 86.8897 125.656C85.3481 127.105 84.524 128.41 84.2994 129.767C84.2877 129.838 84.2848 129.879 84.2863 129.901C84.3534 129.896 84.4978 129.847 84.6363 129.739C84.6757 129.708 84.753 129.647 84.8595 129.561C91.9056 123.947 92.8288 124.051 93.1803 124.092C93.3408 124.11 93.4691 124.236 93.4881 124.397C93.5085 124.558 93.4151 124.712 93.2635 124.769C91.7554 125.339 86.4872 129.595 86.0321 130.33C86.0321 130.494 86.0701 130.631 86.1415 130.719C86.264 130.872 86.5134 130.909 86.7045 130.877C86.9641 130.833 87.2164 130.69 87.4746 130.533C88.0916 130.158 88.7041 129.743 89.2978 129.343C90.5054 128.525 91.7539 127.679 93.1366 127.105C94.1313 126.691 95.5417 126.356 96.6166 127.103C96.7231 127.177 96.7799 127.306 96.7654 127.434C96.7493 127.564 96.6633 127.673 96.5407 127.719C94.7001 128.416 93.0855 129.395 91.7422 130.628C91.5482 130.807 91.3805 131.02 91.2449 131.26C90.8802 131.911 90.9882 132.106 91.0305 132.152C91.3193 132.458 91.4768 132.388 91.9318 132.121L91.9639 132.102C93.7491 130.926 95.5256 129.989 97.3794 129.252C97.7586 129.102 98.2049 128.956 98.6425 128.956Z" fill="black"/>
<path d="M9.53442 100.973L61.0974 101.256L78.8694 137.719L27.7907 137.591L9.53442 100.973Z" fill="#ACD4F7"/>
<path d="M78.8693 138.07L27.7906 137.942C27.6579 137.942 27.5368 137.866 27.477 137.747L9.22074 101.129C9.16678 101.02 9.17261 100.89 9.23679 100.787C9.30096 100.683 9.41327 100.621 9.53578 100.621H9.53724L61.1002 100.903C61.2344 100.903 61.3554 100.981 61.4138 101.101L79.1858 137.566C79.2383 137.675 79.2325 137.803 79.1668 137.905C79.1026 138.009 78.9903 138.07 78.8693 138.07ZM28.0079 137.239L78.3063 137.366L60.877 101.604L10.1046 101.326L28.0079 137.239Z" fill="black"/>
<path d="M42.1482 115.832C40.6853 115.689 39.0853 116.079 38.4888 117.423C37.8923 118.766 38.3502 120.449 39.4354 121.44C40.522 122.431 42.1278 122.75 43.563 122.426C44.3375 122.251 45.1061 121.877 45.5524 121.22C45.8616 120.764 45.9929 120.204 45.9972 119.653C46.0089 117.844 45.1849 116.129 42.1482 115.832Z" fill="white"/>
<path d="M42.4663 122.897C41.2368 122.897 40.051 122.474 39.1992 121.696C37.9653 120.571 37.5307 118.712 38.168 117.279C38.7514 115.964 40.2508 115.291 42.1833 115.481C45.6473 115.82 46.3605 117.937 46.3489 119.653C46.3445 120.325 46.1695 120.934 45.8442 121.414C45.2769 122.248 44.3332 122.61 43.6419 122.766C43.251 122.855 42.8572 122.897 42.4663 122.897ZM41.597 116.155C40.7467 116.155 39.348 116.352 38.8112 117.563C38.2935 118.73 38.6552 120.249 39.6732 121.177C40.6286 122.049 42.09 122.396 43.4858 122.081C44.288 121.9 44.9195 121.523 45.2608 121.02C45.5729 120.56 45.6429 120.021 45.6444 119.649C45.659 117.548 44.5038 116.413 42.1133 116.18C41.9923 116.168 41.8129 116.155 41.597 116.155Z" fill="black"/>
<path d="M134.307 125.452C134.16 125.452 134.023 125.359 133.973 125.212C130.385 114.357 128.355 107.49 128.355 92.6057C128.355 92.4119 128.513 92.2545 128.707 92.2545C128.901 92.2545 129.058 92.4119 129.058 92.6057C129.058 107.383 131.075 114.206 134.641 124.992C134.703 125.176 134.602 125.375 134.418 125.435C134.382 125.447 134.344 125.452 134.307 125.452Z" fill="black"/>
<path d="M90.708 117.522C90.5971 117.522 90.4877 117.469 90.4192 117.372C85.7884 110.718 87.0398 105.843 88.2518 101.129C88.8571 98.7746 89.4828 96.3414 89.3836 93.6795C89.3764 93.4857 89.528 93.3225 89.722 93.3152C89.9116 93.3036 90.0794 93.4595 90.0866 93.6533C90.1887 96.4157 89.5514 98.8999 88.933 101.303C87.7063 106.073 86.5497 110.579 90.9968 116.97C91.1076 117.128 91.0682 117.347 90.9092 117.458C90.848 117.501 90.778 117.522 90.708 117.522Z" fill="black"/>
<path d="M115.933 23.8905C115.901 23.8905 115.871 23.8774 115.847 23.8526C113.524 21.3451 110.238 19.7162 106.832 19.3869C106.768 19.3811 106.721 19.3228 106.727 19.2587C106.733 19.1946 106.794 19.1479 106.855 19.1538C110.316 19.4903 113.656 21.144 116.019 23.6938C116.063 23.7419 116.06 23.8147 116.013 23.8599C115.99 23.8803 115.961 23.8905 115.933 23.8905Z" fill="black"/>
<path d="M117.256 22.5282C117.223 22.5282 117.19 22.5136 117.167 22.4874C116.45 21.6452 115.605 20.9284 114.657 20.3558C114.602 20.3223 114.584 20.2509 114.618 20.1955C114.651 20.1402 114.724 20.1227 114.778 20.1562C115.747 20.7419 116.611 21.4748 117.345 22.3359C117.387 22.3854 117.382 22.4582 117.332 22.5005C117.31 22.5194 117.284 22.5282 117.256 22.5282Z" fill="black"/>
<path d="M117.383 43.6664C117.343 43.6664 117.306 43.6474 117.284 43.611C116.309 42.0608 115.475 40.4114 114.803 38.7082C114.779 38.6485 114.809 38.58 114.868 38.5567C114.928 38.5334 114.997 38.5625 115.02 38.6222C115.687 40.3124 116.515 41.9486 117.482 43.4857C117.516 43.5411 117.5 43.6125 117.446 43.6474C117.425 43.6606 117.405 43.6664 117.383 43.6664Z" fill="black"/>
<path d="M119.212 43.308C119.169 43.308 119.129 43.2847 119.108 43.2453L118.131 41.3891C118.1 41.3323 118.122 41.2609 118.181 41.2317C118.237 41.2011 118.309 41.223 118.338 41.2813L119.315 43.1375C119.346 43.1943 119.324 43.2657 119.266 43.2948C119.248 43.3036 119.231 43.308 119.212 43.308Z" fill="black"/>
<path d="M105.782 101.161C101.1 101.161 96.4137 100.739 91.8631 99.5993C91.8004 99.5833 91.7625 99.5206 91.777 99.4579C91.7931 99.3953 91.8573 99.3574 91.9185 99.3734C103.46 102.263 115.911 100.522 126.898 98.9844C126.959 98.9757 127.021 99.0194 127.031 99.0835C127.04 99.1476 126.996 99.2073 126.932 99.2161C120.247 100.15 113.02 101.161 105.782 101.161Z" fill="black"/>
<path d="M110.003 110.151C103.123 110.151 96.2417 109.336 89.5821 107.71C89.5194 107.694 89.4815 107.632 89.496 107.569C89.5106 107.506 89.5733 107.469 89.6375 107.483C101.857 110.467 114.829 110.713 127.152 108.194C127.216 108.182 127.277 108.222 127.291 108.286C127.304 108.349 127.263 108.411 127.199 108.424C121.559 109.575 115.781 110.151 110.003 110.151Z" fill="black"/>
<path d="M153.235 128.404C153.201 128.404 153.169 128.39 153.146 128.363C148.829 123.287 141.793 120.73 135.218 121.851C135.155 121.862 135.094 121.819 135.082 121.754C135.072 121.69 135.114 121.631 135.178 121.619C141.831 120.485 148.954 123.072 153.324 128.21C153.366 128.26 153.36 128.333 153.311 128.375C153.289 128.394 153.261 128.404 153.235 128.404Z" fill="black"/>
<path d="M152.447 123.717C152.433 123.717 152.418 123.714 152.403 123.708C151.703 123.427 151.133 122.919 150.582 122.426C150.389 122.254 150.191 122.078 149.991 121.915C148.767 120.912 147.293 120.261 145.726 120.029C145.662 120.021 145.618 119.961 145.627 119.897C145.636 119.833 145.697 119.789 145.76 119.798C147.367 120.035 148.881 120.705 150.138 121.734C150.342 121.9 150.542 122.079 150.736 122.253C151.272 122.731 151.826 123.226 152.489 123.493C152.549 123.517 152.578 123.584 152.555 123.644C152.538 123.689 152.494 123.717 152.447 123.717Z" fill="black"/>
</svg>
