<?xml version="1.0" encoding="utf-8"?>
<svg viewBox="0 5.36 90.617 23.907" xmlns="http://www.w3.org/2000/svg">
  <g id="Group">
    <path id="Vector" d="M9.91166 29.2669C7.41873 29.2669 5.31625 28.7582 3.60424 27.7677C1.89223 26.7772 0.690813 25.4118 0 23.6984L4.26502 21.4764C5.25618 23.7787 7.17845 24.9031 10.0618 24.9031C11.4435 24.9031 12.4647 24.689 13.1254 24.2339C13.7862 23.7787 14.0866 23.2165 14.0866 22.5205C14.0866 21.7173 13.6961 21.1016 12.8852 20.6732C12.0742 20.2449 10.6926 19.7898 8.65018 19.2543C7.50883 18.9599 6.5477 18.6654 5.76678 18.3709C4.98587 18.0764 4.20495 17.6748 3.42403 17.1662C2.64311 16.6575 2.0424 16.015 1.65194 15.2386C1.26148 14.4622 1.05124 13.5788 1.05124 12.5347C1.05124 10.5 1.86219 8.86698 3.4841 7.66226C5.10601 6.45754 7.0583 5.8418 9.34099 5.8418C11.3834 5.8418 13.1855 6.29691 14.7173 7.18037C16.2491 8.06384 17.4806 9.3221 18.3216 10.9016L14.1466 13.0701C13.1555 11.1426 11.5336 10.1788 9.31096 10.1788C8.28975 10.1788 7.4788 10.393 6.87809 10.7945C6.27739 11.2229 6.00707 11.7583 6.00707 12.4276C6.00707 13.1237 6.33746 13.7126 6.99823 14.141C7.65901 14.5693 8.9205 15.0512 10.8127 15.5599C11.5936 15.774 12.1643 15.9347 12.5548 16.0685C12.9452 16.1756 13.4859 16.363 14.1767 16.604C14.8675 16.8449 15.3781 17.0859 15.7686 17.3C16.129 17.5142 16.5795 17.8087 17.0601 18.1567C17.5106 18.5315 17.871 18.9063 18.1413 19.3079C18.3816 19.6827 18.6219 20.1646 18.8021 20.7C18.9823 21.2354 19.0724 21.8512 19.0724 22.4937C19.0724 24.5819 18.2314 26.2149 16.5194 27.4464C14.8074 28.6779 12.6148 29.2669 9.91166 29.2669Z" fill="black"/>
    <path id="Vector_2" d="M24.3887 10.8214C23.6078 10.8214 22.947 10.5804 22.3763 10.0718C21.8057 9.56311 21.5353 8.97414 21.5353 8.27808C21.5353 7.58202 21.8057 6.99304 22.3763 6.48438C22.947 5.97572 23.6078 5.70801 24.3887 5.70801C25.1696 5.70801 25.8604 5.97572 26.4311 6.48438C27.0018 6.99304 27.2721 7.60879 27.2721 8.27808C27.2721 8.94737 27.0018 9.56311 26.4311 10.0718C25.8604 10.5804 25.1696 10.8214 24.3887 10.8214ZM22.076 28.8119V12.7489H26.7315V28.8119H22.076Z" fill="black"/>
    <path id="Vector_3" d="M30.9965 28.8117V5.35986H35.6519V28.8117H30.9965Z" fill="black"/>
    <path id="Vector_4" d="M51.7509 12.7488H56.8569L50.0088 28.8117H44.7226L37.8746 12.7488H42.9806L47.3357 23.9928L51.7509 12.7488Z" fill="black"/>
    <path id="Vector_5" d="M59.3198 6.32373H64.3056V28.8118H59.3198V6.32373Z" fill="#1937EE"/>
    <path id="Vector_6" d="M85.5707 28.8118L83.9788 24.7693H73.6166L72.1148 28.8118H66.7385L75.5689 6.32373H81.7262L90.6166 28.8118H85.5707ZM75.2085 20.6197H82.2968L78.6626 11.4371L75.2085 20.6197Z" fill="#1937EE"/>
  </g>
</svg>