<?xml version="1.0" encoding="utf-8"?>
<svg viewBox="192.5 17.5 315 525" xmlns="http://www.w3.org/2000/svg">
  <defs>
    <style type="text/css">
	.st0{fill-rule:evenodd;clip-rule:evenodd;}
</style>
  </defs>
  <g>
    <path class="st0" d="M 367.5 507.5 L 367.5 455 C 367.5 454.7 367.5 454.4 367.5 454 C 446.2 445.3 507.5 378.5 507.5 297.5 C 507.5 287.8 499.7 280 490 280 C 480.3 280 472.5 287.8 472.5 297.5 C 472.5 365.1 417.6 420 350 420 C 282.4 420 227.5 365.1 227.5 297.5 C 227.5 287.8 219.7 280 210 280 C 200.3 280 192.5 287.8 192.5 297.5 C 192.5 378.5 253.8 445.3 332.5 454 L 332.5 454.1 C 332.5 454.4 332.5 454.7 332.5 455 L 332.5 507.5 L 297.5 507.5 C 287.8 507.5 280 515.3 280 525 C 280 534.7 287.8 542.5 297.5 542.5 L 402.5 542.5 C 412.2 542.5 420 534.7 420 525 C 420 515.3 412.2 507.5 402.5 507.5 L 367.5 507.5 Z" style="fill: rgb(0, 147, 201);"/>
    <path class="st0" d="M 350 17.5 C 301.4 17.5 262.8 53.6 262.5 96.8 L 262.5 305.7 C 262.8 348.9 301.4 385 350 385 C 398.8 385 437.5 348.6 437.5 305.1 L 437.5 97.3 C 437.5 53.9 398.8 17.5 350 17.5 Z M 402.5 305.2 C 402.5 330.5 378.5 350 350 350 C 321.7 350 297.7 330.7 297.5 305.5 L 297.5 97 C 297.7 71.8 321.7 52.5 350 52.5 C 378.5 52.5 402.5 72 402.5 97.4 L 402.5 305.2 Z" style="fill: rgb(0, 46, 114);"/>
  </g>
</svg>