<svg width="16" height="16" viewBox="0 0 16 16" fill="none" xmlns="http://www.w3.org/2000/svg">
<path d="M14.5978 6.31872C14.7458 6.31872 14.8878 6.25992 14.9924 6.15525C15.0971 6.05057 15.1559 5.90861 15.1559 5.76058C15.1559 5.61255 15.0971 5.47059 14.9924 5.36592C14.8878 5.26125 14.7458 5.20244 14.5978 5.20244H11.587L15.8435 0.945699C15.9451 0.840385 16.0013 0.699371 16 0.553028C15.9986 0.406686 15.9399 0.266725 15.8363 0.163289C15.7328 0.0598541 15.5928 0.00122107 15.4465 1.88571e-05C15.3001 -0.00118336 15.1592 0.0551414 15.054 0.156862L10.7974 4.41361V1.40114C10.7974 1.25311 10.7386 1.11115 10.634 1.00648C10.5293 0.901805 10.3873 0.843001 10.2393 0.843001C10.0913 0.843001 9.94933 0.901805 9.84466 1.00648C9.73999 1.11115 9.68119 1.25311 9.68119 1.40114V5.76058C9.68119 6.06868 9.93123 6.31872 10.2393 6.31872H14.5978ZM1.4159 9.66756C1.26788 9.66756 1.12592 9.72636 1.02126 9.83103C0.916591 9.93571 0.85779 10.0777 0.85779 10.2257C0.85779 10.3737 0.916591 10.5157 1.02126 10.6204C1.12592 10.725 1.26788 10.7838 1.4159 10.7838H4.42674L0.170194 15.0406C0.116913 15.0921 0.0744242 15.1537 0.0452066 15.2218C0.015989 15.2899 0.000627615 15.3632 1.88333e-05 15.4373C-0.000589949 15.5114 0.013566 15.5849 0.0416608 15.6535C0.0697556 15.722 0.111227 15.7843 0.163654 15.8367C0.216081 15.8891 0.278415 15.9305 0.347018 15.9585C0.415621 15.9866 0.489119 16.0007 0.563225 16C0.63733 15.9993 0.710558 15.9839 0.778636 15.9546C0.846714 15.9253 0.908279 15.8828 0.959738 15.8294L5.21628 11.5727V14.5844C5.21628 14.7324 5.27509 14.8744 5.37975 14.9791C5.48442 15.0837 5.62638 15.1425 5.7744 15.1425C5.92242 15.1425 6.06438 15.0837 6.16904 14.9791C6.27371 14.8744 6.33251 14.7324 6.33251 14.5844V10.2257C6.33251 10.0777 6.27371 9.93571 6.16904 9.83103C6.06438 9.72636 5.92242 9.66756 5.7744 9.66756H1.4159Z" fill="#1937EE"/>
</svg>
