<?xml version="1.0" encoding="utf-8"?>
<svg preserveAspectRatio="xMidYMin" viewBox="-53.1 22.573 60 270" xmlns="http://www.w3.org/2000/svg">
  <rect x="7.9" y="262.573" width="30" height="30" style="fill: rgb(216, 216, 216);"/>
  <path d="M -45.091 30.832 C -45.047 30.35 -44.812 29.725 -44.508 29.419 C -44.202 29.112 -43.577 28.876 -43.101 28.832 L -33.101 28.832 C -32.621 28.876 -31.995 29.113 -31.688 29.419 C -31.382 29.726 -31.145 30.352 -31.101 30.832 L -31.101 46.831 L -32.495 46.234 L -38.101 43.832 L -38.101 43.832 L -45.101 46.832 L -45.1 45.314 Z M -33.104 30.832 L -43.091 30.832 L -43.099 43.798 L -38.889 41.994 L -38.101 41.656 L -37.313 41.994 L -33.101 43.799 L -33.101 30.835 C -33.102 30.835 -33.102 30.834 -33.103 30.834 C -33.103 30.833 -33.104 30.833 -33.104 30.832 Z" style="fill: rgb(72, 72, 74);"/>
  <path d="M -15.09 30.573 C -15.046 30.091 -14.811 29.466 -14.507 29.16 C -14.201 28.853 -13.576 28.617 -13.1 28.573 L -3.1 28.573 C -2.62 28.617 -1.994 28.854 -1.687 29.16 C -1.381 29.467 -1.144 30.093 -1.1 30.573 L -1.1 46.572 L -2.494 45.975 L -8.1 43.573 L -8.1 43.573 L -15.1 46.573 L -15.099 45.055 Z M -3.103 30.573 L -13.09 30.573 L -13.098 43.539 L -8.888 41.735 L -8.1 41.397 L -7.312 41.735 L -3.1 43.54 L -3.1 30.576 C -3.101 30.576 -3.101 30.575 -3.102 30.575 C -3.102 30.574 -3.103 30.574 -3.103 30.573 Z" style="fill: rgb(255, 255, 255);"/>
  <g transform="matrix(1, 0, 0, 1, -53.099998, 22.573)">
    <path d="M 22.372 42.034 L 21.312 43.87 L 21.312 51.223 C 21.312 51.269 21.268 51.312 21.223 51.312 L 8.778 51.312 C 8.732 51.312 8.689 51.268 8.689 51.223 L 8.689 38.778 C 8.689 38.733 8.732 38.689 8.778 38.689 L 17.873 38.689 L 18.286 37.974 L 18.524 37.561 C 18.647 37.349 18.801 37.163 18.976 37 L 8.778 37 C 7.798 37 7 37.798 7 38.778 L 7 51.223 C 7 52.203 7.798 53 8.778 53 L 21.223 53 C 22.203 53 23 52.203 23 51.222 L 23 40.945 L 22.372 42.034 Z" fill="#48484A"/>
    <path d="M 15.286 45.394 L 15.303 48.709 L 18.183 47.068 L 21.591 41.164 L 18.693 39.491 L 15.286 45.394 Z" fill="#48484A"/>
    <path d="M 22.385 39.789 C 22.785 39.095 22.459 38.161 21.659 37.699 C 20.859 37.237 19.887 37.422 19.486 38.116 L 19.067 38.843 L 21.966 40.516 L 22.385 39.789 Z" fill="#48484A"/>
  </g>
  <g transform="matrix(1, 0, 0, 1, -23.099998, 22.573)">
    <path d="M 22.372 42.034 L 21.312 43.87 L 21.312 51.223 C 21.312 51.269 21.268 51.312 21.223 51.312 L 8.778 51.312 C 8.732 51.312 8.689 51.268 8.689 51.223 L 8.689 38.778 C 8.689 38.733 8.732 38.689 8.778 38.689 L 17.873 38.689 L 18.286 37.974 L 18.524 37.561 C 18.647 37.349 18.801 37.163 18.976 37 L 8.778 37 C 7.798 37 7 37.798 7 38.778 L 7 51.223 C 7 52.203 7.798 53 8.778 53 L 21.223 53 C 22.203 53 23 52.203 23 51.222 L 23 40.945 L 22.372 42.034 Z" style="fill: rgb(255, 255, 255);"/>
    <path d="M 15.286 45.394 L 15.303 48.709 L 18.183 47.068 L 21.591 41.164 L 18.693 39.491 L 15.286 45.394 Z" style="fill: rgb(255, 255, 255);"/>
    <path d="M 22.385 39.789 C 22.785 39.095 22.459 38.161 21.659 37.699 C 20.859 37.237 19.887 37.422 19.486 38.116 L 19.067 38.843 L 21.966 40.516 L 22.385 39.789 Z" style="fill: rgb(255, 255, 255);"/>
  </g>
  <g transform="matrix(1, 0, 0, 1, -111.316002, 10.179003)">
    <path d="M 74.166 90.71 L 77.966 90.71 L 77.966 87.868 L 82.716 92.131 L 77.966 96.394 L 77.966 93.552 L 74.166 93.552 L 74.166 90.71 Z M 80.816 78.394 L 65.616 78.394 C 65.112 78.394 64.629 78.594 64.273 78.949 C 63.916 79.304 63.716 79.786 63.716 80.289 L 63.716 91.657 C 63.716 92.16 63.916 92.642 64.273 92.997 C 64.629 93.352 65.112 93.552 65.616 93.552 L 72.266 93.552 L 72.266 91.657 L 65.616 91.657 L 65.616 82.183 L 73.216 86.92 L 80.816 82.183 L 80.816 87.868 L 82.716 87.868 L 82.716 80.289 C 82.716 79.786 82.516 79.304 82.16 78.949 C 81.803 78.594 81.32 78.394 80.816 78.394 Z M 73.216 85.026 L 65.616 80.289 L 80.816 80.289 L 73.216 85.026 Z" fill="#48484A"/>
  </g>
  <g transform="matrix(1, 0, 0, 1, -81.316002, 10.179003)">
    <path d="M 74.166 90.71 L 77.966 90.71 L 77.966 87.868 L 82.716 92.131 L 77.966 96.394 L 77.966 93.552 L 74.166 93.552 L 74.166 90.71 Z M 80.816 78.394 L 65.616 78.394 C 65.112 78.394 64.629 78.594 64.273 78.949 C 63.916 79.304 63.716 79.786 63.716 80.289 L 63.716 91.657 C 63.716 92.16 63.916 92.642 64.273 92.997 C 64.629 93.352 65.112 93.552 65.616 93.552 L 72.266 93.552 L 72.266 91.657 L 65.616 91.657 L 65.616 82.183 L 73.216 86.92 L 80.816 82.183 L 80.816 87.868 L 82.716 87.868 L 82.716 80.289 C 82.716 79.786 82.516 79.304 82.16 78.949 C 81.803 78.594 81.32 78.394 80.816 78.394 Z M 73.216 85.026 L 65.616 80.289 L 80.816 80.289 L 73.216 85.026 Z" style="fill: rgb(255, 255, 255);"/>
  </g>
  <g transform="matrix(1, 0, 0, 1, -111.652939, 22.750254)">
    <path d="M 77.904 109.869 L 74.27 113.504 L 73.562 114.211 L 72.855 113.504 L 69.221 109.869 L 70.635 108.455 L 73.562 111.382 L 76.489 108.455 Z" style="fill: rgb(72, 72, 74);"/>
    <path d="M 73.563 104.62 L 73.563 112.797" stroke-width="2" stroke-linecap="round" stroke-linejoin="round" style=""/>
    <path d="M 74.563 104.62 L 74.563 112.797 L 72.563 112.797 L 72.563 104.62 Z" style="fill: rgb(72, 72, 74);"/>
    <path d="M 64.637 109.18 C 63.844 108.264 63.205 107.09 62.866 105.926 C 62.552 104.756 62.49 103.42 62.694 102.226 C 62.922 101.036 63.449 99.807 64.154 98.822 C 64.879 97.851 65.89 96.975 66.954 96.396 C 68.03 95.84 69.322 95.494 70.532 95.437 C 71.743 95.407 73.062 95.647 74.17 96.137 C 75.278 96.626 76.354 97.43 77.137 98.355 C 77.921 99.279 78.258 99.976 78.599 100.894 L 79.014 100.894 C 80.135 100.918 81.371 101.321 82.291 101.963 C 83.181 102.645 83.94 103.701 84.302 104.763 C 84.617 105.839 84.605 107.139 84.27 108.21 C 84.084 108.74 83.79 109.31 83.458 109.755 C 83.126 110.199 82.432 110.751 82.432 110.751 C 82.381 110.81 80.882 109.495 80.83 109.554 C 80.83 109.554 81.617 108.877 81.856 108.557 C 82.095 108.238 82.252 107.954 82.375 107.57 C 82.657 106.81 82.664 106.132 82.396 105.367 C 82.174 104.587 81.779 104.036 81.11 103.577 C 80.471 103.079 79.826 102.869 79.015 102.894 L 77.87 102.894 L 77.084 102.894 L 76.901 102.143 C 76.668 101.183 76.25 100.401 75.612 99.648 C 74.973 98.894 74.265 98.365 73.362 97.966 C 72.459 97.567 71.591 97.388 70.604 97.436 C 69.617 97.459 68.758 97.689 67.892 98.163 C 67.013 98.615 66.341 99.197 65.769 100.002 C 65.176 100.791 64.825 101.609 64.661 102.583 C 64.473 103.552 64.514 104.44 64.792 105.388 C 65.046 106.342 65.471 107.124 66.135 107.855 Z" style="fill: rgb(72, 72, 74);"/>
  </g>
  <g transform="matrix(1, 0, 0, 1, -82.328918, 23.008995)">
    <path d="M 77.904 109.869 L 74.27 113.504 L 73.562 114.211 L 72.855 113.504 L 69.221 109.869 L 70.635 108.455 L 73.562 111.382 L 76.489 108.455 Z" style="fill: rgb(255, 255, 255);"/>
    <path d="M 73.563 104.62 L 73.563 112.797" stroke-width="2" stroke-linecap="round" stroke-linejoin="round" style="fill: rgb(255, 255, 255);"/>
    <path d="M 74.563 104.62 L 74.563 112.797 L 72.563 112.797 L 72.563 104.62 Z" style="fill: rgb(255, 255, 255);"/>
    <path d="M 64.637 109.18 C 63.844 108.264 63.205 107.09 62.866 105.926 C 62.552 104.756 62.49 103.42 62.694 102.226 C 62.922 101.036 63.449 99.807 64.154 98.822 C 64.879 97.851 65.89 96.975 66.954 96.396 C 68.03 95.84 69.322 95.494 70.532 95.437 C 71.743 95.407 73.062 95.647 74.17 96.137 C 75.278 96.626 76.354 97.43 77.137 98.355 C 77.921 99.279 78.258 99.976 78.599 100.894 L 79.014 100.894 C 80.135 100.918 81.371 101.321 82.291 101.963 C 83.181 102.645 83.94 103.701 84.302 104.763 C 84.617 105.839 84.605 107.139 84.27 108.21 C 84.084 108.74 83.79 109.31 83.458 109.755 C 83.126 110.199 82.432 110.751 82.432 110.751 C 82.381 110.81 80.882 109.495 80.83 109.554 C 80.83 109.554 81.617 108.877 81.856 108.557 C 82.095 108.238 82.252 107.954 82.375 107.57 C 82.657 106.81 82.664 106.132 82.396 105.367 C 82.174 104.587 81.779 104.036 81.11 103.577 C 80.471 103.079 79.826 102.869 79.015 102.894 L 77.87 102.894 L 77.084 102.894 L 76.901 102.143 C 76.668 101.183 76.25 100.401 75.612 99.648 C 74.973 98.894 74.265 98.365 73.362 97.966 C 72.459 97.567 71.591 97.388 70.604 97.436 C 69.617 97.459 68.758 97.689 67.892 98.163 C 67.013 98.615 66.341 99.197 65.769 100.002 C 65.176 100.791 64.825 101.609 64.661 102.583 C 64.473 103.552 64.514 104.44 64.792 105.388 C 65.046 106.342 65.471 107.124 66.135 107.855 Z" style="fill: rgb(255, 255, 255);"/>
  </g>
  <path d="M -43.047 161.773 L -43.551 160.261 L -46.899 160.261 L -47.403 161.773 L -49.191 161.773 L -46.251 153.373 L -44.199 153.373 L -41.247 161.773 L -43.047 161.773 Z M -46.371 158.713 L -44.067 158.713 L -45.219 155.281 L -46.371 158.713 Z M -37.3 153.373 C -36.492 153.373 -35.812 153.645 -35.26 154.189 C -34.708 154.733 -34.432 155.401 -34.432 156.193 C -34.432 156.985 -34.708 157.653 -35.26 158.197 C -35.812 158.741 -36.492 159.013 -37.3 159.013 L -38.776 159.013 L -38.776 161.773 L -40.432 161.773 L -40.432 153.373 L -37.3 153.373 Z M -37.3 157.465 C -36.948 157.465 -36.656 157.345 -36.424 157.105 C -36.192 156.857 -36.076 156.553 -36.076 156.193 C -36.076 155.825 -36.192 155.521 -36.424 155.281 C -36.656 155.041 -36.948 154.921 -37.3 154.921 L -38.776 154.921 L -38.776 157.465 L -37.3 157.465 Z M -28.809 161.773 L -29.313 160.261 L -32.661 160.261 L -33.165 161.773 L -34.953 161.773 L -32.013 153.373 L -29.961 153.373 L -27.009 161.773 L -28.809 161.773 Z M -32.133 158.713 L -29.829 158.713 L -30.981 155.281 L -32.133 158.713 Z" fill="#48484A"/>
  <path d="M -13.047 161.773 L -13.551 160.261 L -16.899 160.261 L -17.403 161.773 L -19.191 161.773 L -16.251 153.373 L -14.199 153.373 L -11.247 161.773 L -13.047 161.773 Z M -16.371 158.713 L -14.067 158.713 L -15.219 155.281 L -16.371 158.713 Z M -7.3 153.373 C -6.492 153.373 -5.812 153.645 -5.26 154.189 C -4.708 154.733 -4.432 155.401 -4.432 156.193 C -4.432 156.985 -4.708 157.653 -5.26 158.197 C -5.812 158.741 -6.492 159.013 -7.3 159.013 L -8.776 159.013 L -8.776 161.773 L -10.432 161.773 L -10.432 153.373 L -7.3 153.373 Z M -7.3 157.465 C -6.948 157.465 -6.656 157.345 -6.424 157.105 C -6.192 156.857 -6.076 156.553 -6.076 156.193 C -6.076 155.825 -6.192 155.521 -6.424 155.281 C -6.656 155.041 -6.948 154.921 -7.3 154.921 L -8.776 154.921 L -8.776 157.465 L -7.3 157.465 Z M 1.191 161.773 L 0.687 160.261 L -2.661 160.261 L -3.165 161.773 L -4.953 161.773 L -2.013 153.373 L 0.039 153.373 L 2.991 161.773 L 1.191 161.773 Z M -2.133 158.713 L 0.171 158.713 L -0.981 155.281 L -2.133 158.713 Z" style="fill: rgb(255, 255, 255);"/>
  <g transform="matrix(1, 0, 0, 1, -0.767499, 0.151497)">
    <path d="M -38.999 188.255 C -38.641 188.733 -38.185 189.129 -37.66 189.416 C -37.136 189.702 -36.556 189.872 -35.96 189.915 C -35.364 189.958 -34.766 189.872 -34.206 189.663 C -33.647 189.454 -33.138 189.127 -32.716 188.705 L -30.216 186.205 C -29.457 185.419 -29.037 184.366 -29.046 183.274 C -29.056 182.182 -29.494 181.136 -30.267 180.364 C -31.039 179.591 -32.084 179.153 -33.177 179.144 C -34.269 179.134 -35.322 179.554 -36.107 180.313 L -37.541 181.738" stroke="#48484A" stroke-width="2" stroke-linecap="round" stroke-linejoin="round" style="fill: none;"/>
    <path d="M -35.666 186.588 C -36.024 186.11 -36.48 185.714 -37.005 185.427 C -37.529 185.141 -38.109 184.971 -38.705 184.928 C -39.301 184.885 -39.899 184.971 -40.459 185.18 C -41.018 185.389 -41.527 185.716 -41.949 186.138 L -44.449 188.638 C -45.208 189.424 -45.628 190.476 -45.619 191.569 C -45.609 192.661 -45.171 193.706 -44.398 194.479 C -43.626 195.252 -42.581 195.69 -41.488 195.699 C -40.396 195.709 -39.343 195.289 -38.557 194.53 L -37.132 193.105" stroke="#48484A" stroke-width="2" stroke-linecap="round" stroke-linejoin="round" style="fill: none;"/>
  </g>
  <g transform="matrix(1, 0, 0, 1, 29.2325, 0.151497)">
    <path d="M -38.999 188.255 C -38.641 188.733 -38.185 189.129 -37.66 189.416 C -37.136 189.702 -36.556 189.872 -35.96 189.915 C -35.364 189.958 -34.766 189.872 -34.206 189.663 C -33.647 189.454 -33.138 189.127 -32.716 188.705 L -30.216 186.205 C -29.457 185.419 -29.037 184.366 -29.046 183.274 C -29.056 182.182 -29.494 181.136 -30.267 180.364 C -31.039 179.591 -32.084 179.153 -33.177 179.144 C -34.269 179.134 -35.322 179.554 -36.107 180.313 L -37.541 181.738" stroke-width="2" stroke-linecap="round" stroke-linejoin="round" style="fill: none; stroke: rgb(255, 255, 255);"/>
    <path d="M -35.666 186.588 C -36.024 186.11 -36.48 185.714 -37.005 185.427 C -37.529 185.141 -38.109 184.971 -38.705 184.928 C -39.301 184.885 -39.899 184.971 -40.459 185.18 C -41.018 185.389 -41.527 185.716 -41.949 186.138 L -44.449 188.638 C -45.208 189.424 -45.628 190.476 -45.619 191.569 C -45.609 192.661 -45.171 193.706 -44.398 194.479 C -43.626 195.252 -42.581 195.69 -41.488 195.699 C -40.396 195.709 -39.343 195.289 -38.557 194.53 L -37.132 193.105" stroke-width="2" stroke-linecap="round" stroke-linejoin="round" style="fill: none; stroke: rgb(255, 255, 255);"/>
  </g>
  <path d="M -32.829 242.302 C -29.838 245.158 -29.82 249.964 -32.829 252.802 M -45.579 249.771 L -45.579 245.332 C -45.579 244.901 -45.243 244.552 -44.829 244.552 L -42.14 244.552 C -42.04 244.551 -41.942 244.531 -41.851 244.491 C -41.76 244.452 -41.678 244.395 -41.609 244.323 L -39.359 241.782 C -38.887 241.29 -38.079 241.639 -38.079 242.334 L -38.079 252.769 C -38.079 253.47 -38.897 253.816 -39.366 253.314 L -41.609 250.787 C -41.677 250.713 -41.76 250.654 -41.853 250.613 C -41.945 250.573 -42.045 250.552 -42.146 250.552 L -44.829 250.552 C -45.243 250.552 -45.579 250.202 -45.579 249.771 Z M -35.079 244.927 C -34.079 246.26 -34.079 248.843 -35.079 250.177 L -35.079 244.927 Z" stroke="#48484A" stroke-width="1.5" stroke-linecap="round" stroke-linejoin="round" style="fill: rgb(255, 255, 255); fill-opacity: 0;"/>
  <path d="M -14.494 212.367 L -12.467 212.367 L -12.467 222.651 L -14.494 222.651 L -14.494 212.367 Z M -3.952 222.651 L -4.569 220.799 L -8.668 220.799 L -9.285 222.651 L -11.474 222.651 L -7.875 212.367 L -5.362 212.367 L -1.749 222.651 L -3.952 222.651 Z M -8.022 218.904 L -5.201 218.904 L -6.611 214.703 L -8.022 218.904 Z" style="fill: rgb(255, 255, 255);"/>
  <path d="M -44.451 212.367 L -42.424 212.367 L -42.424 222.651 L -44.451 222.651 L -44.451 212.367 Z M -33.909 222.651 L -34.526 220.799 L -38.625 220.799 L -39.242 222.651 L -41.431 222.651 L -37.832 212.367 L -35.319 212.367 L -31.706 222.651 L -33.909 222.651 Z M -37.979 218.904 L -35.158 218.904 L -36.568 214.703 L -37.979 218.904 Z" fill="#48484A" style=""/>
  <path d="M -2.871 242.302 C 0.12 245.158 0.138 249.964 -2.871 252.802 M -15.621 249.771 L -15.621 245.332 C -15.621 244.901 -15.285 244.552 -14.871 244.552 L -12.182 244.552 C -12.082 244.551 -11.984 244.531 -11.893 244.491 C -11.802 244.452 -11.72 244.395 -11.651 244.323 L -9.401 241.782 C -8.929 241.29 -8.121 241.639 -8.121 242.334 L -8.121 252.769 C -8.121 253.47 -8.939 253.816 -9.408 253.314 L -11.651 250.787 C -11.719 250.713 -11.802 250.654 -11.895 250.613 C -11.987 250.573 -12.087 250.552 -12.188 250.552 L -14.871 250.552 C -15.285 250.552 -15.621 250.202 -15.621 249.771 Z M -5.121 244.927 C -4.121 246.26 -4.121 248.843 -5.121 250.177 L -5.121 244.927 Z" stroke-width="1.5" stroke-linecap="round" stroke-linejoin="round" style="fill: rgb(255, 255, 255); fill-opacity: 0; stroke: rgb(255, 255, 255);"/>
  <path d="M -2.974 274.002 C -2.974 271.19 -5.279 268.903 -8.091 268.903 C -10.903 268.903 -13.209 271.19 -13.209 274.002 L -13.209 284.067 C -13.339 284.498 -13.452 285.005 -13.489 285.624 C -13.509 285.942 -13.283 286.204 -12.965 286.223 L -12.927 286.223 C -12.627 286.223 -12.383 285.999 -12.365 285.699 C -12.308 285.005 -12.196 284.498 -12.028 284.086 C -11.709 283.355 -11.24 282.999 -10.753 282.625 C -10.716 282.605 -10.678 282.568 -10.659 282.549 C -10.191 283.374 -9.197 283.936 -8.054 283.936 C -6.947 283.936 -5.954 283.393 -5.504 282.605 C -5.486 282.624 -5.466 282.643 -5.448 282.643 C -4.961 283.018 -4.492 283.355 -4.173 284.105 C -4.005 284.498 -3.874 285.023 -3.836 285.717 C -3.817 286.017 -3.574 286.242 -3.273 286.242 L -3.236 286.242 C -2.918 286.223 -2.693 285.942 -2.711 285.641 C -2.748 285.023 -2.861 284.517 -2.992 284.086 L -2.992 274.002 Z M -8.054 282.812 C -8.878 282.812 -9.666 282.324 -9.76 281.762 C -9.516 281.444 -9.309 281.049 -9.197 280.506 C -8.84 280.656 -8.485 280.731 -8.091 280.731 C -7.697 280.731 -7.342 280.656 -6.985 280.506 C -6.873 281.069 -6.647 281.5 -6.385 281.818 C -6.516 282.343 -7.266 282.812 -8.054 282.812 Z M -10.809 275.951 C -10.809 275.857 -10.809 275.763 -10.79 275.669 L -10.79 275.651 C -10.79 275.557 -10.771 275.482 -10.753 275.388 C -9.797 275.614 -8.691 275.388 -7.81 274.732 C -7.66 274.62 -7.529 274.508 -7.397 274.395 C -7.397 274.395 -7.397 274.414 -7.379 274.414 C -7.191 274.639 -6.967 274.845 -6.723 275.014 C -6.31 275.277 -5.841 275.445 -5.392 275.482 L -5.392 275.501 C -5.392 275.557 -5.373 275.632 -5.373 275.708 L -5.373 275.763 L -5.373 275.97 C -5.373 277.619 -6.629 279.644 -8.091 279.644 C -9.553 279.644 -10.809 277.601 -10.809 275.951 Z M -4.098 282.287 C -4.323 282.08 -4.548 281.912 -4.754 281.762 C -5.41 281.274 -5.861 280.937 -5.917 279.832 C -4.885 278.875 -4.229 277.357 -4.229 275.951 C -4.229 275.857 -4.229 275.763 -4.249 275.669 L -4.249 275.614 C -4.249 275.539 -4.267 275.464 -4.267 275.388 L -4.267 275.351 C -4.285 275.277 -4.285 275.183 -4.305 275.107 C -4.305 275.089 -4.305 275.051 -4.323 275.033 C -4.342 274.976 -4.342 274.92 -4.36 274.863 C -4.36 274.826 -4.38 274.789 -4.38 274.77 C -4.398 274.714 -4.417 274.676 -4.454 274.62 C -4.567 274.432 -4.791 274.339 -5.017 274.376 C -5.523 274.451 -6.122 274.207 -6.497 273.739 C -6.61 273.589 -6.723 273.421 -6.779 273.251 C -6.853 273.046 -7.041 272.914 -7.248 272.895 C -7.453 272.877 -7.66 272.97 -7.773 273.158 C -7.941 273.438 -8.165 273.665 -8.447 273.87 C -8.503 273.908 -8.54 273.945 -8.597 273.964 C -8.934 274.189 -9.309 274.32 -9.684 274.377 C -10.097 274.432 -10.509 274.377 -10.865 274.207 C -10.921 274.17 -10.978 274.17 -11.052 274.151 L -11.202 274.151 L -11.222 274.151 C -11.24 274.151 -11.259 274.151 -11.259 274.17 C -11.278 274.17 -11.315 274.189 -11.334 274.189 C -11.372 274.207 -11.409 274.227 -11.428 274.245 C -11.446 274.264 -11.465 274.264 -11.483 274.283 C -11.502 274.301 -11.522 274.301 -11.522 274.32 C -11.577 274.376 -11.616 274.451 -11.653 274.526 C -11.69 274.639 -11.727 274.751 -11.765 274.882 C -11.784 274.92 -11.784 274.977 -11.803 275.014 C -11.821 275.089 -11.84 275.164 -11.858 275.239 L -11.858 275.257 C -11.877 275.332 -11.877 275.388 -11.897 275.464 C -11.897 275.52 -11.915 275.576 -11.915 275.632 L -11.915 275.669 C -11.934 275.802 -11.934 275.913 -11.934 276.026 C -11.934 277.413 -11.278 278.95 -10.247 279.906 C -10.303 280.993 -10.771 281.35 -11.409 281.837 C -11.616 282.006 -11.858 282.174 -12.065 282.362 L -12.065 274.002 C -12.065 271.809 -10.284 270.009 -8.072 270.009 C -5.861 270.009 -4.098 271.808 -4.098 274.002 Z" style="fill: rgb(255, 255, 255);"/>
  <path d="M -32.974 274.002 C -32.974 271.19 -35.279 268.903 -38.091 268.903 C -40.903 268.903 -43.209 271.19 -43.209 274.002 L -43.209 284.067 C -43.339 284.498 -43.452 285.005 -43.489 285.624 C -43.509 285.942 -43.283 286.204 -42.965 286.223 L -42.927 286.223 C -42.627 286.223 -42.383 285.999 -42.365 285.699 C -42.308 285.005 -42.196 284.498 -42.028 284.086 C -41.709 283.355 -41.24 282.999 -40.753 282.625 C -40.716 282.605 -40.678 282.568 -40.659 282.549 C -40.191 283.374 -39.197 283.936 -38.054 283.936 C -36.947 283.936 -35.954 283.393 -35.504 282.605 C -35.486 282.624 -35.466 282.643 -35.448 282.643 C -34.961 283.018 -34.492 283.355 -34.173 284.105 C -34.005 284.498 -33.874 285.023 -33.836 285.717 C -33.817 286.017 -33.574 286.242 -33.273 286.242 L -33.236 286.242 C -32.918 286.223 -32.693 285.942 -32.711 285.641 C -32.748 285.023 -32.861 284.517 -32.992 284.086 L -32.992 274.002 Z M -38.054 282.812 C -38.878 282.812 -39.666 282.324 -39.76 281.762 C -39.516 281.444 -39.309 281.049 -39.197 280.506 C -38.84 280.656 -38.485 280.731 -38.091 280.731 C -37.697 280.731 -37.342 280.656 -36.985 280.506 C -36.873 281.069 -36.647 281.5 -36.385 281.818 C -36.516 282.343 -37.266 282.812 -38.054 282.812 Z M -40.809 275.951 C -40.809 275.857 -40.809 275.763 -40.79 275.669 L -40.79 275.651 C -40.79 275.557 -40.771 275.482 -40.753 275.388 C -39.797 275.614 -38.691 275.388 -37.81 274.732 C -37.66 274.62 -37.529 274.508 -37.397 274.395 C -37.397 274.395 -37.397 274.414 -37.379 274.414 C -37.191 274.639 -36.967 274.845 -36.723 275.014 C -36.31 275.277 -35.841 275.445 -35.392 275.482 L -35.392 275.501 C -35.392 275.557 -35.373 275.632 -35.373 275.708 L -35.373 275.763 L -35.373 275.97 C -35.373 277.619 -36.629 279.644 -38.091 279.644 C -39.553 279.644 -40.809 277.601 -40.809 275.951 Z M -34.098 282.287 C -34.323 282.08 -34.548 281.912 -34.754 281.762 C -35.41 281.274 -35.861 280.937 -35.917 279.832 C -34.885 278.875 -34.229 277.357 -34.229 275.951 C -34.229 275.857 -34.229 275.763 -34.249 275.669 L -34.249 275.614 C -34.249 275.539 -34.267 275.464 -34.267 275.388 L -34.267 275.351 C -34.285 275.277 -34.285 275.183 -34.305 275.107 C -34.305 275.089 -34.305 275.051 -34.323 275.033 C -34.342 274.976 -34.342 274.92 -34.36 274.863 C -34.36 274.826 -34.38 274.789 -34.38 274.77 C -34.398 274.714 -34.417 274.676 -34.454 274.62 C -34.567 274.432 -34.791 274.339 -35.017 274.376 C -35.523 274.451 -36.122 274.207 -36.497 273.739 C -36.61 273.589 -36.723 273.421 -36.779 273.251 C -36.853 273.046 -37.041 272.914 -37.248 272.895 C -37.453 272.877 -37.66 272.97 -37.773 273.158 C -37.941 273.438 -38.165 273.665 -38.447 273.87 C -38.503 273.908 -38.54 273.945 -38.597 273.964 C -38.934 274.189 -39.309 274.32 -39.684 274.377 C -40.097 274.432 -40.509 274.377 -40.865 274.207 C -40.921 274.17 -40.978 274.17 -41.052 274.151 L -41.202 274.151 L -41.222 274.151 C -41.24 274.151 -41.259 274.151 -41.259 274.17 C -41.278 274.17 -41.315 274.189 -41.334 274.189 C -41.372 274.207 -41.409 274.227 -41.428 274.245 C -41.446 274.264 -41.465 274.264 -41.483 274.283 C -41.502 274.301 -41.522 274.301 -41.522 274.32 C -41.577 274.376 -41.616 274.451 -41.653 274.526 C -41.69 274.639 -41.727 274.751 -41.765 274.882 C -41.784 274.92 -41.784 274.977 -41.803 275.014 C -41.821 275.089 -41.84 275.164 -41.858 275.239 L -41.858 275.257 C -41.877 275.332 -41.877 275.388 -41.897 275.464 C -41.897 275.52 -41.915 275.576 -41.915 275.632 L -41.915 275.669 C -41.934 275.802 -41.934 275.913 -41.934 276.026 C -41.934 277.413 -41.278 278.95 -40.247 279.906 C -40.303 280.993 -40.771 281.35 -41.409 281.837 C -41.616 282.006 -41.858 282.174 -42.065 282.362 L -42.065 274.002 C -42.065 271.809 -40.284 270.009 -38.072 270.009 C -35.861 270.009 -34.098 271.808 -34.098 274.002 Z" style="fill: rgb(72, 72, 74);"/>
</svg>